<?xml version="1.0" standalone="no"?>
<!DOCTYPE svg PUBLIC "-//W3C//DTD SVG 1.1//EN" "http://www.w3.org/Graphics/SVG/1.1/DTD/svg11.dtd" >
<svg xmlns="http://www.w3.org/2000/svg">
<metadata>Generated by IcoMoon</metadata>
<defs>
<font id="PlaziconFont" horiz-adv-x="1024">
<font-face units-per-em="1024" ascent="960" descent="-64" />
<missing-glyph horiz-adv-x="1024" />
<glyph unicode="&#x20;" horiz-adv-x="512" d="" />
<glyph unicode="&#xe900;" horiz-adv-x="6222" d="M6222.234 448c-0.171-282.641-229.336-511.7-512-511.7-282.77 0-512 229.23-512 512s229.23 512 512 512c141.408 0 269.428-57.327 362.085-150.008l0.001-0.001c92.61-92.244 149.916-219.874 149.916-360.889 0-0.493-0.001-0.986-0.002-1.478v0.076z" />
<glyph unicode="&#xe901;" horiz-adv-x="6222" d="M5418.803 302.797h365.158v-146.022h-365.158v146.022z" />
<glyph unicode="&#xe902;" horiz-adv-x="6222" d="M6003.098 229.683c-0.23-40.215-32.71-72.768-72.876-73.113h-0.033c-0.341-0.006-0.742-0.009-1.145-0.009-40.266 0-72.909 32.642-72.909 72.909 0 20.267 8.27 38.603 21.619 51.817l0.006 0.006c13.201 13.057 31.361 21.123 51.406 21.123 40.246 0 72.896-32.517 73.113-72.712v-0.021z" />
<glyph unicode="&#xe903;" horiz-adv-x="6222" d="M5637.939 521.728h365.158v-146.022h-365.158v146.022z" />
<glyph unicode="&#xe904;" horiz-adv-x="6222" d="M5564.826 448c0-40.266-32.642-72.909-72.909-72.909s-72.909 32.642-72.909 72.909c0 40.266 32.642 72.909 72.909 72.909v0c0.061 0 0.133 0 0.205 0 40.153 0 72.704-32.551 72.704-72.704 0-0.072 0-0.144 0-0.216v0.011z" />
<glyph unicode="&#xe905;" horiz-adv-x="6222" d="M5564.826 667.75c-0.116-40.178-32.714-72.704-72.909-72.704-40.266 0-72.909 32.642-72.909 72.909s32.642 72.909 72.908 72.909v0c40.198-0.346 72.679-32.899 72.909-73.092v-0.022z" />
<glyph unicode="&#xe906;" horiz-adv-x="6222" d="M532.48 408.474c0.077-2.283 0.12-4.968 0.12-7.662 0-134.598-109.114-243.712-243.712-243.712-46.841 0-90.595 13.214-127.738 36.118l1.052-0.603v-256.614h-162.202v720.486h162.202v-32.358c36.302 22.521 80.341 35.869 127.498 35.869 1.329 0 2.655-0.011 3.979-0.032l-0.2 0.003c130.253 0 239.002-107.315 239.002-251.494zM374.374 408.474c0.079 1.592 0.124 3.457 0.124 5.332 0 62.993-50.695 114.145-113.513 114.885l-0.070 0.001c-0.951 0.026-2.071 0.041-3.195 0.041-38.476 0-72.916-17.281-95.982-44.504l-0.151-0.183v-151.142c22.947-26.937 56.897-43.909 94.81-43.909 1.589 0 3.17 0.030 4.745 0.089l-0.227-0.007c0.037 0 0.081 0 0.124 0 63.001 0 114.074 51.072 114.074 114.074 0 1.873-0.045 3.735-0.134 5.586l0.010-0.261z" />
<glyph unicode="&#xe907;" horiz-adv-x="6222" d="M776.192 872.755v-705.946h-161.792v705.946z" />
<glyph unicode="&#xe908;" horiz-adv-x="6222" d="M1390.387 656.486v-497.254h-161.587v33.382c-35.995-24.397-80.389-38.949-128.182-38.949-1.448 0-2.894 0.013-4.336 0.040l0.217-0.003c-130.253 0-239.616 111.411-239.616 254.771s109.363 253.542 239.616 253.542c1.707 0.046 3.716 0.071 5.732 0.071 47.123 0 90.936-14.172 127.41-38.487l-0.841 0.527v32.358zM1228.8 333.722v149.299c-23.096 26.352-56.821 42.9-94.411 42.9-1.729 0-3.45-0.035-5.162-0.104l0.246 0.008c-0.387 0.005-0.845 0.007-1.303 0.007-62.549 0-113.254-50.706-113.254-113.254 0-1.443 0.027-2.88 0.080-4.31l-0.006 0.206c-0.047-1.224-0.074-2.66-0.074-4.103 0-62.549 50.706-113.254 113.254-113.254 0.458 0 0.916 0.003 1.373 0.008l-0.070-0.001c1.545-0.068 3.358-0.107 5.179-0.107 37.471 0 71.095 16.47 94.028 42.565l0.121 0.14z" />
<glyph unicode="&#xe909;" horiz-adv-x="6222" d="M1921.024 563.507l-218.931-263.578h218.931v-133.12h-450.56v78.438l227.738 269.517h-223.642v134.349h446.464z" />
<glyph unicode="&#xe90a;" horiz-adv-x="6222" d="M2802.688 446.157v-279.347h-160.768v259.482c0 65.741-33.792 89.498-79.667 89.498-0.602 0.013-1.311 0.020-2.022 0.020-31.175 0-59.009-14.303-77.299-36.705l-0.142-0.179c0.685-6.839 1.076-14.78 1.076-22.813 0-1.772-0.019-3.54-0.057-5.303l0.004 0.263v-284.262h-161.178v264.397c0 65.741-33.792 84.582-74.547 84.582-0.485 0.008-1.056 0.013-1.629 0.013-33.391 0-63.050-15.983-81.743-40.715l-0.187-0.258v-307.2h-162.611v481.485h162.202v-29.901c34.538 26.701 78.455 42.799 126.132 42.799 56.678 0 108.042-22.751 145.459-59.618l-0.025 0.025c40.975 37.002 95.538 59.642 155.388 59.642 1.604 0 3.203-0.016 4.799-0.049l-0.239 0.004c125.338 0 207.053-76.595 207.053-215.859z" />
<glyph unicode="&#xe90b;" horiz-adv-x="6222" d="M3383.091 369.562h-348.16c7.552-50.45 50.583-88.698 102.548-88.698 2.398 0 4.777 0.081 7.135 0.242l-0.319-0.017c35.84 0 56.73 7.987 71.68 25.805h163.84c-28.877-94.413-118.374-153.19-231.834-153.19-158.106 0-263.373 107.52-263.373 254.771s102.4 253.542 251.494 253.542c168.55 0 270.95-121.242 246.989-292.454zM3035.955 462.131h200.909c-8.806 55.706-43.622 80.486-98.304 80.486-1.56 0.088-3.386 0.138-5.223 0.138-48.202 0-88.368-34.405-97.28-79.998l-0.102-0.626z" />
<glyph unicode="&#xe90c;" horiz-adv-x="6222" d="M4000.768 872.755v-705.946h-161.178v23.757c-36.083-23.157-80.118-36.915-127.367-36.915-1.735 0-3.466 0.019-5.192 0.055l0.258-0.004c-130.253 0-239.616 109.568-239.616 253.747s109.363 252.518 239.616 252.518c1.621 0.041 3.53 0.064 5.444 0.064 47.19 0 91.090-14.087 127.724-38.285l-0.867 0.538v250.47zM3839.59 331.878v149.094c-23.167 26.356-56.95 42.9-94.598 42.9-1.736 0-3.463-0.035-5.182-0.105l0.247 0.008c-0.628 0.013-1.367 0.020-2.109 0.020-62.436 0-113.050-50.614-113.050-113.050 0-1.303 0.022-2.601 0.066-3.894l-0.005 0.188c-0.068-1.468-0.107-3.189-0.107-4.919 0-62.662 50.797-113.459 113.459-113.459 0.326 0 0.651 0.001 0.976 0.004h-0.050c1.606-0.073 3.489-0.115 5.381-0.115 37.847 0 71.789 16.72 94.842 43.177l0.129 0.151z" />
<glyph unicode="&#xe90d;" horiz-adv-x="6222" d="M4283.392 649.114v-482.304h-161.178v482.304z" />
<glyph unicode="&#xe90e;" glyph-name="add_shopping_cart" d="M306 308.667q0-10 10-10h494v-86h-512q-34 0-59 26t-25 60q0 20 10 40l58 106-154 324h-86v84h140q40-84 80-170 10-18 46-95t56-119h300q150 272 164 300l74-42-164-298q-24-44-74-44h-318l-38-70zM726 170.667q34 0 59-26t25-60-25-59-59-25-60 25-26 59 26 60 60 26zM298 170.667q34 0 60-26t26-60-26-59-60-25-59 25-25 59 25 60 59 26zM470 554.667v128h-128v86h128v128h84v-128h128v-86h-128v-128h-84z" />
<glyph unicode="&#xe90f;" horiz-adv-x="6222" d="M4897.587 656.486v-497.254h-161.178v33.382c-36.036-24.396-80.47-38.947-128.303-38.947-1.406 0-2.809 0.013-4.208 0.038l0.211-0.003c-130.253 0-239.616 111.411-239.616 254.771s109.363 253.542 239.616 253.542c1.671 0.044 3.64 0.068 5.614 0.068 47.162 0 91.014-14.17 127.532-38.486l-0.845 0.529v32.358zM4736.41 333.722v149.299c-23.167 26.356-56.95 42.9-94.598 42.9-1.736 0-3.463-0.035-5.182-0.105l0.247 0.008c-0.326 0.003-0.712 0.005-1.098 0.005-62.549 0-113.254-50.706-113.254-113.254 0-1.442 0.027-2.878 0.080-4.308l-0.006 0.206c-0.047-1.223-0.074-2.659-0.074-4.101 0-62.549 50.706-113.254 113.254-113.254 0.386 0 0.772 0.002 1.157 0.006h-0.059c1.551-0.069 3.37-0.108 5.198-0.108 37.528 0 71.211 16.467 94.216 42.569l0.119 0.137z" />
<glyph unicode="&#xe910;" d="M0 192h640v-256h-640v256z" />
<glyph unicode="&#xe911;" d="M896 192c70.692 0 128-57.308 128-128s-57.308-128-128-128c-70.692 0-128 57.308-128 128s57.308 128 128 128z" />
<glyph unicode="&#xe912;" d="M384 576h640v-256h-640v256z" />
<glyph unicode="&#xe913;" d="M128 576c70.692 0 128-57.308 128-128s-57.308-128-128-128c-70.692 0-128 57.308-128 128s57.308 128 128 128z" />
<glyph unicode="&#xe914;" d="M128 704c-70.692 0-128 57.308-128 128s57.308 128 128 128c70.692 0 128-57.308 128-128s-57.308-128-128-128z" />
<glyph unicode="&#xe915;" d="M512 960c-282.77 0-512-229.23-512-512s229.23-512 512-512c282.77 0 512 229.23 512 512v0c0 282.77-229.23 512-512 512v0zM292.659 740.659c40.38 0 73.114-32.734 73.114-73.114s-32.734-73.114-73.114-73.114c-40.38 0-73.114 32.734-73.114 73.114v0c0 40.38 32.734 73.114 73.114 73.114v0zM292.659 521.318c0.061 0 0.133 0 0.205 0 40.493 0 73.318-32.826 73.318-73.318s-32.826-73.318-73.318-73.318c-40.493 0-73.318 32.826-73.318 73.318v0c0 0.061 0 0.133 0 0.205 0 40.38 32.734 73.114 73.114 73.114 0 0 0 0 0 0v0zM585.114 155.546h-365.568v146.227h365.568zM731.546 155.546c-40.38 0-73.114 32.734-73.114 73.114s32.734 73.114 73.114 73.114c40.38 0 73.114-32.734 73.114-73.114v0c0-40.38-32.734-73.114-73.114-73.114v0zM804.659 374.886h-365.773v146.432h365.773z" />
<glyph unicode="&#xe916;" d="M219.546 301.773h365.568v-146.227h-365.568v146.227z" />
<glyph unicode="&#xe917;" d="M804.659 228.659c0-0.061 0-0.133 0-0.205 0-40.493-32.826-73.318-73.318-73.318s-73.318 32.826-73.318 73.318c0 40.493 32.826 73.318 73.318 73.318 0.072 0 0.144 0 0.216 0h-0.011c40.38 0 73.114-32.734 73.114-73.114v0z" />
<glyph unicode="&#xe918;" d="M365.773 667.546c0-40.38-32.734-73.114-73.114-73.114s-73.114 32.734-73.114 73.114c0 40.38 32.734 73.114 73.114 73.114s73.114-32.734 73.114-73.114z" />
<glyph unicode="&#xe919;" d="M365.773 448c-0.116-40.291-32.806-72.909-73.113-72.909-40.38 0-73.114 32.734-73.114 73.114s32.734 73.113 73.113 73.114v0c0 0 0 0 0 0 40.38 0 73.114-32.734 73.114-73.114 0-0.072 0-0.144 0-0.216v0.011z" />
<glyph unicode="&#xe91a;" glyph-name="loopsync" d="M512 170.667v128l170-170-170-172v128q-140 0-241 101t-101 241q0 100 54 182l62-62q-30-54-30-120 0-106 75-181t181-75zM512 768.667q140 0 241-101t101-241q0-100-54-182l-62 62q30 54 30 120 0 106-75 181t-181 75v-128l-170 170 170 172v-128z" />
<glyph unicode="&#xe91b;" d="M438.886 521.318h365.773v-146.432h-365.773v146.432z" />
<glyph unicode="&#xe91c;" glyph-name="logotype-color" horiz-adv-x="5353" d="M582.656 452.301c0-156.467-119.603-275.046-261.939-275.046-0.986-0.013-2.149-0.020-3.315-0.020-51.764 0-100.128 14.56-141.219 39.808l1.174-0.671v-280.371h-177.357v787.456h177.152v-35.226c39.749 24.579 87.944 39.144 139.54 39.144 1.343 0 2.684-0.010 4.022-0.030l-0.203 0.002c142.541 0 262.144-117.35 262.144-275.046zM409.805 452.301c0.090 1.78 0.142 3.864 0.142 5.961 0 68.521-54.895 124.22-123.105 125.519l-0.121 0.002c-1.027 0.027-2.236 0.043-3.448 0.043-42.112 0-79.82-18.858-105.139-48.591l-0.162-0.195v-165.274c25.209-29.456 62.426-48.007 103.976-48.007 1.679 0 3.35 0.030 5.014 0.090l-0.241-0.007c68.163 1.084 123.003 56.594 123.003 124.913 0 1.95-0.045 3.89-0.133 5.818l0.010-0.273zM848.486 960v-771.891h-177.152v771.891zM1519.616 723.456v-543.334h-176.128v36.25c-39.404-26.571-87.952-42.413-140.2-42.413-1.111 0-2.22 0.007-3.327 0.021l0.168-0.002c-143.36 0-262.144 122.88-262.144 278.323s119.603 277.299 262.144 277.299c1.607 0.037 3.501 0.058 5.4 0.058 51.316 0 99.057-15.307 138.906-41.604l-0.946 0.586v34.816zM1343.488 370.79v163.84c-25.18 28.868-62.030 47.007-103.116 47.007-1.909 0-3.809-0.039-5.699-0.117l0.271 0.009c-0.708 0.015-1.542 0.023-2.378 0.023-67.865 0-122.88-55.015-122.88-122.88 0-1.953 0.046-3.895 0.136-5.826l-0.010 0.273c-0.074-1.596-0.116-3.467-0.116-5.348 0-67.865 55.015-122.88 122.88-122.88 0.833 0 1.664 0.008 2.493 0.025l-0.124-0.002c1.826-0.087 3.966-0.137 6.118-0.137 40.677 0 77.214 17.726 102.307 45.876l0.119 0.136zM2099.61 621.875l-239.206-287.949h239.206v-145.818h-491.52v86.016l247.808 294.502h-243.302v146.842h487.014zM3063.194 493.67v-305.562h-175.514v283.853c0 71.68-37.069 97.69-87.040 97.69-0.563 0.010-1.227 0.016-1.893 0.016-34.364 0-65.013-15.909-84.982-40.764l-0.165-0.212c0.822-7.509 1.29-16.218 1.29-25.036 0-1.927-0.022-3.848-0.067-5.764l0.005 0.285v-310.067h-176.128v289.178c0 71.885-37.069 92.365-81.92 92.365-0.501 0.008-1.091 0.013-1.683 0.013-36.459 0-68.873-17.322-89.459-44.185l-0.198-0.269v-337.101h-177.152v527.36h177.152v-32.768c34.894 29.233 80.269 46.988 129.792 46.988 2.107 0 4.206-0.032 6.297-0.096l-0.306 0.007c3.267 0.186 7.088 0.292 10.935 0.292 59.306 0 112.724-25.208 150.124-65.494l0.119-0.129c44.773 40.557 104.456 65.38 169.937 65.38 1.745 0 3.486-0.018 5.222-0.053l-0.26 0.004c136.806 0 225.894-83.763 225.894-235.93zM3697.869 409.907h-381.542c8.262-55.126 55.286-96.916 112.070-96.916 2.651 0 5.28 0.091 7.885 0.27l-0.352-0.019c39.117 0 61.44 8.602 78.234 28.262h178.176c-31.539-102.4-129.229-167.526-253.133-167.526-172.851 0-288.154 117.555-288.154 278.323s112.026 277.299 275.046 277.299c185.958 0 297.779-132.71 271.77-319.693zM3317.76 511.078h219.75c-9.83 61.44-47.923 88.064-107.725 88.064-1.715 0.097-3.722 0.153-5.741 0.153-52.678 0-96.558-37.667-106.175-87.537l-0.109-0.679zM4372.89 960v-771.891h-176.128v26.214c-39.682-25.711-88.196-40.996-140.28-40.996-1.515 0-3.027 0.013-4.535 0.039l0.227-0.003c-143.36 0-261.939 119.603-261.939 277.299s119.603 276.070 261.939 276.070c2.066 0.061 4.497 0.096 6.936 0.096 51.219 0 98.859-15.324 138.586-41.637l-0.933 0.581v274.227zM4196.762 368.742v163.84c-25.314 28.755-62.204 46.802-103.309 46.802-1.913 0-3.817-0.039-5.711-0.117l0.271 0.009c-0.632 0.012-1.377 0.018-2.124 0.018-67.865 0-122.88-55.015-122.88-122.88 0-1.519 0.028-3.031 0.082-4.537l-0.006 0.218c-0.073-1.59-0.114-3.454-0.114-5.328 0-68.543 55.565-124.109 124.109-124.109 0.328 0 0.656 0.001 0.984 0.004h-0.050c1.833-0.088 3.98-0.138 6.14-0.138 40.774 0 77.388 17.811 102.486 46.077l0.123 0.141zM4681.933 715.469v-527.36h-176.333v527.36zM5353.062 723.456v-543.334h-176.128v36.25c-39.43-26.582-88.008-42.43-140.288-42.43-1.512 0-3.022 0.013-4.528 0.040l0.226-0.003c-142.336 0-261.939 122.88-261.939 278.323s119.603 277.299 261.939 277.299c1.944 0.054 4.232 0.084 6.527 0.084 51.353 0 99.129-15.317 139.008-41.631l-0.947 0.587v34.816zM5176.934 370.79v163.84c-25.216 28.873-62.096 47.011-103.213 47.011-1.947 0-3.884-0.041-5.812-0.121l0.275 0.009c-0.647 0.012-1.409 0.019-2.173 0.019-67.865 0-122.88-55.015-122.88-122.88 0-1.952 0.045-3.893 0.135-5.822l-0.010 0.273c-0.074-1.595-0.116-3.464-0.116-5.344 0-67.865 55.015-122.88 122.88-122.88 0.761 0 1.52 0.007 2.278 0.021l-0.114-0.002c1.858-0.090 4.036-0.141 6.226-0.141 40.708 0 77.275 17.727 102.405 45.882l0.118 0.135z" />
<glyph unicode="&#xe91d;" glyph-name="not_interesteddo_not_disturb" d="M782 216.667q72 90 72 210 0 140-101 241t-241 101q-48 0-110-21t-100-51zM512 84.667q48 0 110 21t100 51l-480 480q-72-90-72-210 0-140 101-241t241-101zM512 852.667q176 0 301-125t125-301-125-301-301-125-301 125-125 301 125 301 301 125z" />
<glyph unicode="&#xe91e;" horiz-adv-x="803" d="M765.338 683.93h-12.288v156.877c11.767 5.018 19.866 16.488 19.866 29.85 0 17.871-14.487 32.358-32.358 32.358s-32.358-14.487-32.358-32.358c0-13.361 8.098-24.831 19.654-29.769l0.211-0.080v-88.064c-59.108 123.567-183.13 207.4-326.732 207.4-169.295 0-311.376-116.515-350.429-273.729l-0.522-2.483h-12.698c-0.434 0.019-0.944 0.029-1.455 0.029-20.020 0-36.25-16.229-36.25-36.25 0-0.442 0.008-0.883 0.024-1.322l-0.002 0.063v-98.099c-0.014-0.375-0.022-0.816-0.022-1.258 0-20.020 16.229-36.25 36.25-36.25 0.512 0 1.021 0.011 1.528 0.032l-0.073-0.002h12.698c20.038-79.529 63.911-146.812 123.467-195.688l0.642-0.511c-8.493-10.929-13.643-24.823-13.722-39.918v-0.018c0.057-6.242 1.102-12.22 2.985-17.812l-0.118 0.404c-67.818-25.632-115.726-88.796-118.569-163.504l-0.010-0.336v-145.613c0 0 0-0.001 0-0.002 0-6.9 5.593-12.493 12.493-12.493 0.072 0 0.144 0.001 0.216 0.002h150.722v268.493c7.025-4.696 15.209-9.399 23.705-13.564l1.281-0.567v-253.747h336.282v253.747c9.372 4.551 17.288 9.185 24.815 14.346l-0.648-0.42v-267.674h155.853c6.9 0 12.493 5.593 12.493 12.493v0 148.685c-1.94 39.656-16.695 75.53-40.174 103.925l0.238-0.297c-21.773 25.691-49.251 45.87-80.527 58.682l-1.393 0.505c1.3 4.338 2.049 9.324 2.049 14.484 0 0.092 0 0.184-0.001 0.276v-0.014c-0.282 15.090-5.393 28.934-13.846 40.108l0.125-0.172c60.198 49.387 104.071 116.67 123.566 193.666l0.543 2.532h12.493c0.432-0.018 0.939-0.029 1.449-0.029 20.133 0 36.454 16.321 36.454 36.454 0 0.37-0.006 0.739-0.016 1.107l0.001-0.054v98.099c-1.713 20.112-17.73 35.988-37.753 37.47l-0.135 0.008zM612.762 257.126c-1.993-4.060-4.314-7.559-7.020-10.718l0.057 0.068v-1.229c-3.072-3.277-6.349-6.963-10.445-10.65-7.314-6.231-15.499-11.868-24.233-16.624l-0.752-0.375c-14.349-7.999-30.997-14.974-48.452-20.051l-1.724-0.429h-1.434c-10.912-3.315-24.724-6.519-38.811-8.914l-2.149-0.302h-2.048l-19.456-2.662h-5.939c-5.734 0-11.469 0-17.203-1.229h-6.554c-7.782 0-15.974 0-23.962 0-12.288 0-23.962 0-35.43 1.638h-8.397c-10.854 0-21.709 2.458-31.539 3.891l-4.71 1.024c-8.602 1.434-16.589 3.277-24.576 5.12l-8.192 2.253c-9.799 2.456-17.792 4.982-25.589 7.908l1.627-0.535-6.349 2.458-16.179 7.168-6.758 3.277c-11.388 5.902-21.206 12.713-30.041 20.603l0.14-0.123-6.144 4.506c-3.448 3.6-6.499 7.629-9.052 11.985l-0.164 0.303c-3.475 5.746-5.531 12.688-5.531 20.11 0 0.13 0.001 0.26 0.002 0.39v-0.020c0.349 9.56 3.519 18.317 8.697 25.535l-0.096-0.14c9.218-6.747 19.791-13.526 30.77-19.664l1.588-0.816c4.915-2.867 10.035-5.734 15.155-8.192s11.059-5.325 16.794-7.782c41.953-18.639 90.896-29.493 142.374-29.493 0.346 0 0.693 0 1.039 0.001h-0.053c0.328-0.001 0.716-0.002 1.103-0.002 52.096 0 101.568 11.237 146.124 31.42l-2.229-0.903c5.734 2.458 11.264 4.915 16.998 7.782s10.445 5.325 15.36 8.192c10.445 5.939 20.48 12.288 29.901 19.046 5.083-7.079 8.253-15.835 8.599-25.312l0.002-0.083c0-0.008 0-0.018 0-0.028 0-6.799-1.904-13.154-5.209-18.56l0.089 0.156zM557.466 366.080c-7.824-5.486-16.868-10.991-26.259-15.924l-1.389-0.665c-37.211-19.745-81.354-31.338-128.205-31.338s-90.994 11.593-129.717 32.067l1.512-0.729c-10.78 5.598-19.824 11.103-28.473 17.134l0.825-0.545c-74.439 50.765-122.675 135.17-122.675 230.841 0 153.827 124.701 278.528 278.528 278.528s278.528-124.701 278.528-278.528c0-95.671-48.236-180.076-121.714-230.222l-0.961-0.619z" />
<glyph unicode="&#xe91f;" glyph-name="location_off" d="M500 448.667q218-216 354-352l-54-54-144 142q-32-48-68-94t-56-68l-20-22q-12 14-32 37t-72 92-91 134-71 147-32 144q0 22 8 66l-136 136 54 54 356-356zM512 660.667q-46 0-78-36l-138 136q36 38 100 65t116 27q124 0 211-87t87-211q0-96-72-234l-154 156q34 30 34 78 0 44-31 75t-75 31z" />
<glyph unicode="&#xe920;" glyph-name="location_onplaceroom" d="M512 448.667q44 0 75 31t31 75-31 75-75 31-75-31-31-75 31-75 75-31zM512 852.667q124 0 211-87t87-211q0-62-31-142t-75-150-87-131-73-97l-32-34q-12 14-32 37t-72 92-91 134-71 147-32 144q0 124 87 211t211 87z" />
<glyph unicode="&#xe921;" glyph-name="stay_current_landscapestay_primary_landscape" d="M810 640.667h-596v-428h596v428zM44 640.667q0 34 25 59t59 25h768q34 0 60-25t26-59v-428q0-34-26-59t-60-25h-768q-34 0-60 25t-26 59z" />
<glyph unicode="&#xe922;" glyph-name="stay_current_portraitstay_primary_portraitsmartphone" d="M726 128.667v596h-428v-596h428zM726 894.667q34 0 59-25t25-59v-768q0-34-25-60t-59-26h-428q-34 0-59 26t-25 60v768q0 34 25 60t59 26z" />
<glyph unicode="&#xe923;" glyph-name="vpn_key" d="M298 340.667q34 0 60 26t26 60-26 60-60 26-59-26-25-60 25-60 59-26zM540 512.667h442v-172h-86v-170h-170v170h-186q-26-70-97-120t-145-50q-106 0-181 75t-75 181 75 181 181 75q74 0 145-50t97-120z" />
<glyph unicode="&#xe924;" glyph-name="mail_outline" d="M512 468.667l342 214h-684zM854 170.667v426l-342-212-342 212v-426h684zM854 768.667q34 0 59-26t25-60v-512q0-34-25-60t-59-26h-684q-34 0-59 26t-25 60v512q0 34 25 60t59 26h684z" />
<glyph unicode="&#xe925;" glyph-name="alternate_email" d="M512 298.667q52 0 90 38t38 90-38 90-90 38-90-38-38-90 38-90 90-38zM512 852.667q176 0 301-125t125-301v-62q0-64-43-108t-105-44q-78 0-126 64-64-64-152-64t-151 63-63 151 63 151 151 63 151-63 63-151v-62q0-26 19-46t45-20 45 20 19 46v62q0 140-101 241t-241 101-241-101-101-241 101-241 241-101h214v-84h-214q-176 0-301 125t-125 301 125 301 301 125z" />
<glyph unicode="&#xe926;" horiz-adv-x="803" d="M401.613 874.803c-153.417-0.54-277.578-125.034-277.578-278.526 0-95.267 47.829-179.363 120.785-229.585l0.94-0.611c7.824-5.486 16.868-10.991 26.259-15.924l1.389-0.665c37.211-19.745 81.354-31.338 128.205-31.338s90.994 11.593 129.717 32.067l-1.512-0.729c10.78 5.598 19.824 11.103 28.473 17.134l-0.825-0.545c73.895 50.833 121.725 134.929 121.725 230.197 0 153.492-124.16 277.986-277.525 278.526h-0.052zM548.659 714.24c-88.064 97.69-230.4 61.44-232.038 60.416-1.965-0.554-4.222-0.873-6.554-0.873-13.829 0-25.039 11.21-25.039 25.039 0 11.497 7.749 21.185 18.31 24.125l0.176 0.042c7.168 2.048 173.466 45.875 282.214-74.138 3.832-4.341 6.171-10.079 6.171-16.364 0-7.211-3.080-13.703-7.997-18.232l-0.017-0.016c-4.254-4.058-10.028-6.554-16.385-6.554-0.072 0-0.143 0-0.215 0.001h0.011c-0.577-0.049-1.249-0.076-1.927-0.076-6.473 0-12.357 2.524-16.721 6.641l0.012-0.011zM615.629 600.166h-1.434c-11.54 0.95-20.546 10.549-20.546 22.252 0 0.602 0.024 1.198 0.070 1.787l-0.005-0.078c0.004 0.354 0.007 0.771 0.007 1.189 0 14.376-3.017 28.048-8.452 40.416l0.253-0.645c-2.318 3.504-3.699 7.806-3.699 12.429 0 12.555 10.178 22.733 22.733 22.733 10.419 0 19.201-7.009 21.887-16.57l0.038-0.16c7.53-17.199 11.911-37.244 11.911-58.311 0-1.1-0.012-2.198-0.036-3.292l0.003 0.163c-1.174-11.673-10.871-20.731-22.717-20.889h-0.016z" />
<glyph unicode="&#xe927;" glyph-name="add" d="M810 384.667h-256v-256h-84v256h-256v84h256v256h84v-256h256v-84z" />
<glyph unicode="&#xe928;" glyph-name="add_box" d="M726 384.667v84h-172v172h-84v-172h-172v-84h172v-172h84v172h172zM810 810.667q34 0 60-26t26-60v-596q0-34-26-60t-60-26h-596q-36 0-61 25t-25 61v596q0 36 25 61t61 25h596z" />
<glyph unicode="&#xe929;" glyph-name="add_circle" d="M726 384.667v84h-172v172h-84v-172h-172v-84h172v-172h84v172h172zM512 852.667q176 0 301-125t125-301-125-301-301-125-301 125-125 301 125 301 301 125z" />
<glyph unicode="&#xe92a;" glyph-name="add_circle_outlinecontrol_point" d="M512 84.667q140 0 241 101t101 241-101 241-241 101-241-101-101-241 101-241 241-101zM512 852.667q176 0 301-125t125-301-125-301-301-125-301 125-125 301 125 301 301 125zM554 640.667v-172h172v-84h-172v-172h-84v172h-172v84h172v172h84z" />
<glyph unicode="&#xe92b;" horiz-adv-x="803" d="M583.885 714.24c-4.254-4.058-10.028-6.554-16.385-6.554-0.072 0-0.143 0-0.215 0.001h0.011c-0.068-0.001-0.149-0.001-0.23-0.001-7.335 0-13.914 3.241-18.382 8.369l-0.025 0.029c-88.064 95.846-230.4 59.597-232.038 58.573-1.965-0.554-4.222-0.873-6.554-0.873-13.829 0-25.039 11.21-25.039 25.039 0 11.497 7.749 21.185 18.31 24.125l0.176 0.042c7.168 2.048 173.466 45.875 282.214-74.138 3.832-4.341 6.171-10.079 6.171-16.364 0-7.211-3.080-13.703-7.997-18.232l-0.017-0.016z" />
<glyph unicode="&#xe92c;" glyph-name="clearclose" d="M810 664.667l-238-238 238-238-60-60-238 238-238-238-60 60 238 238-238 238 60 60 238-238 238 238z" />
<glyph unicode="&#xe92d;" horiz-adv-x="803" d="M638.362 622.49c-1.369-11.497-10.997-20.346-22.719-20.48h-1.448c-11.54 0.95-20.546 10.549-20.546 22.252 0 0.602 0.024 1.198 0.070 1.787l-0.005-0.078c0.004 0.354 0.007 0.771 0.007 1.189 0 14.376-3.017 28.048-8.452 40.416l0.253-0.645c-2.318 3.504-3.699 7.806-3.699 12.429 0 12.555 10.178 22.733 22.733 22.733 10.419 0 19.201-7.009 21.887-16.57l0.038-0.16c7.551-17.221 11.946-37.294 11.946-58.392 0-1.576-0.025-3.146-0.073-4.71l0.006 0.229z" />
<glyph unicode="&#xe92e;" glyph-name="createmode_editedit" d="M884 638.667l-78-78-160 160 78 78q12 12 30 12t30-12l100-100q12-12 12-30t-12-30zM128 202.667l472 472 160-160-472-472h-160v160z" />
<glyph unicode="&#xe92f;" glyph-name="drafts" d="M512 384.667l352 220-352 206-352-206zM938 596.667v-426q0-34-25-60t-59-26h-684q-34 0-59 26t-25 60v426q0 50 40 74l386 226 386-226q40-24 40-74z" />
<glyph unicode="&#xe930;" glyph-name="filter_list" d="M256 384.667v84h512v-84h-512zM128 682.667h768v-86h-768v86zM426 170.667v86h172v-86h-172z" />
<glyph unicode="&#xe931;" glyph-name="flagassistant_photo" d="M614 682.667h240v-426h-300l-16 84h-240v-298h-84v726h384z" />
<glyph unicode="&#xe932;" horiz-adv-x="803" d="M538.010 56.627c0-19.341-15.68-35.020-35.021-35.020s-35.021 15.679-35.021 35.021c0 19.269 15.563 34.904 34.805 35.020h0.011c0.061 0 0.133 0.001 0.205 0.001 19.341 0 35.021-15.679 35.021-35.021 0 0 0 0 0-0.001v0z" />
<glyph unicode="&#xe933;" glyph-name="remove1" d="M810 384.667h-596v84h596v-84z" />
<glyph unicode="&#xe934;" glyph-name="remove_circledo_not_disturb_on" d="M726 384.667v84h-428v-84h428zM512 852.667q176 0 301-125t125-301-125-301-301-125-301 125-125 301 125 301 301 125z" />
<glyph unicode="&#xe935;" glyph-name="remove_circle_outline" d="M512 84.667q140 0 241 101t101 241-101 241-241 101-241-101-101-241 101-241 241-101zM512 852.667q176 0 301-125t125-301-125-301-301-125-301 125-125 301 125 301 301 125zM298 468.667h428v-84h-428v84z" />
<glyph unicode="&#xe936;" glyph-name="report" d="M554 384.667v256h-84v-256h84zM512 200.667q22 0 39 17t17 39-17 38-39 16-39-16-17-38 17-39 39-17zM672 810.667l224-224v-320l-224-224h-320l-224 224v320l224 224h320z" />
<glyph unicode="&#xe937;" glyph-name="save" d="M640 554.667v170h-426v-170h426zM512 128.667q52 0 90 38t38 90-38 90-90 38-90-38-38-90 38-90 90-38zM726 810.667l170-170v-512q0-34-26-60t-60-26h-596q-36 0-61 25t-25 61v596q0 36 25 61t61 25h512z" />
<glyph unicode="&#xe938;" glyph-name="outlined_flag" d="M768 340.667v256h-214l-42 86h-214v-256h256l44-86h170zM598 682.667h256v-426h-300l-42 84h-214v-298h-84v726h340z" />
<glyph unicode="&#xe939;" horiz-adv-x="803" d="M424.55 93.901h-153.805c-0.381 0.046-0.822 0.072-1.269 0.072-5.886 0-10.717-4.514-11.221-10.269l-0.003-0.042v-51.61c0.518-5.901 5.436-10.494 11.427-10.494 0.375 0 0.746 0.018 1.112 0.053l-0.047-0.004h153.805c0.319-0.032 0.69-0.050 1.065-0.050 5.991 0 10.909 4.594 11.424 10.451l0.003 0.043v51.61c-0.507 5.798-5.338 10.312-11.224 10.312-0.447 0-0.888-0.026-1.322-0.077l0.053 0.005zM412.058 42.291h-128.819v31.13h128.819z" />
<glyph unicode="&#xe93a;" glyph-name="bitbucket1" horiz-adv-x="1138" d="M36.454 960h1071.923c4.375-1.406 8.179-3.356 11.589-5.817l-0.121 0.083c3.316-2.528 6.258-5.146 8.991-7.966l0.020-0.021c2.907-2.847 5.259-6.249 6.885-10.036l0.078-0.204c1.426-3.704 2.253-7.99 2.253-12.469 0-0.008 0-0.017 0-0.025v0.001-6.963l-155.034-950.886c-1.92-8.31-6.435-15.358-12.632-20.428l-0.066-0.052c-6.126-5.713-14.373-9.22-23.44-9.22-0.183 0-0.366 0.001-0.549 0.004h-743.396c-11.892 0.384-22.621 5.062-30.755 12.525l0.035-0.032c-8.866 6.899-15.099 16.816-17.161 28.186l-0.042 0.281-155.034 939.622v6.963c-0.009 0.308-0.015 0.67-0.015 1.033 0 9.802 3.913 18.691 10.262 25.188l-0.007-0.007c6.43 6.343 15.267 10.26 25.019 10.26 0.42 0 0.839-0.007 1.256-0.022l-0.061 0.002zM688.742 280.474l56.934 335.053h-357.99l63.898-335.053z" />
<glyph unicode="&#xe93b;" glyph-name="save_alt" d="M554 398.667l112 110 60-60-214-214-214 214 60 60 112-110v412h84v-412zM810 426.667h86v-298q0-34-26-60t-60-26h-596q-34 0-60 26t-26 60v298h86v-298h596v298z" />
<glyph unicode="&#xe93c;" glyph-name="chrome-dino" horiz-adv-x="951" d="M951.027 691.604v220.429h-47.859v47.966h-384.916v-47.966h-46.457v-307.739h-47.966v-46.565h-70.387v-47.966h-70.387v-47.966h-47.859v-46.457h-86.878v48.829h-46.457v46.026h-47.966v94.1h-53.895v-291.032h46.457v-47.427h47.859v-46.457h46.457v-47.966h47.966v-46.457h46.457v-188.955h101.753v53.895h-45.918v40.529h46.349v46.457h47.966v48.074h38.912v-48.074h47.966v-140.881h101.861v53.895h-48.397v181.517h47.966v47.966h46.457v70.494h48.182v164.918h38.912v-46.565h55.512v101.969h-94.424v86.986h188.416v55.512h-142.282v38.912zM621.514 834.102h-56.913v56.913h56.913z" />
<glyph unicode="&#xe93d;" glyph-name="chrome-dino-left" horiz-adv-x="951" d="M951.027 691.604v220.429h-47.859v47.966h-384.916v-47.966h-46.457v-307.739h-47.966v-46.565h-70.387v-47.966h-70.387v-47.966h-47.859v-46.457h-86.878v48.829h-46.457v46.026h-47.966v94.1h-53.895v-291.032h46.457v-47.427h47.859v-46.457h46.457v-47.966h47.966v-46.457h46.457v-110.161h101.753v53.895h-45.918v29.75h46.349v26.193h86.663v-48.074h47.966v-140.557h101.861v53.895h-48.182v181.517h47.966v47.966h46.457v70.494h48.182v164.918h38.912v-46.565h55.512v101.969h-94.424v86.986h188.416v55.512h-142.282v38.912zM621.514 834.102h-56.913v56.913h56.913z" />
<glyph unicode="&#xe93e;" glyph-name="brightness_mediumbrightness_6" d="M512 170.667q106 0 181 75t75 181-75 181-181 75v-512zM854 284.667v-200h-200l-142-140-142 140h-200v200l-140 142 140 142v200h200l142 140 142-140h200v-200l140-142z" />
<glyph unicode="&#xe93f;" glyph-name="devicesphonelink" d="M938 212.667v300h-170v-300h170zM982 596.667q18 0 30-12t12-30v-426q0-18-12-31t-30-13h-256q-18 0-31 13t-13 31v426q0 18 13 30t31 12h256zM170 682.667v-470h428v-128h-598v128h86v470q0 34 25 60t59 26h768v-86h-768z" />
<glyph unicode="&#xe940;" glyph-name="storage" d="M170 468.667v-84h86v84h-86zM86 340.667v172h852v-172h-852zM256 640.667v84h-86v-84h86zM86 768.667h852v-172h-852v172zM170 212.667v-84h86v84h-86zM86 84.667v172h852v-172h-852z" />
<glyph unicode="&#xe941;" glyph-name="format_list_bulleted" d="M298 724.667h598v-84h-598v84zM298 384.667v84h598v-84h-598zM298 128.667v84h598v-84h-598zM170 234.667q26 0 45-19t19-45-19-45-45-19-45 19-19 45 19 45 45 19zM170 746.667q26 0 45-18t19-46-19-46-45-18-45 18-19 46 19 46 45 18zM170 490.667q26 0 45-18t19-46-19-46-45-18-45 18-19 46 19 46 45 18z" />
<glyph unicode="&#xe942;" glyph-name="vertical_align_bottom" d="M170 128.667h684v-86h-684v86zM682 384.667l-170-172-170 172h128v426h84v-426h128z" />
<glyph unicode="&#xe943;" glyph-name="vertical_align_top" d="M170 810.667h684v-86h-684v86zM342 468.667l170 172 170-172h-128v-426h-84v426h-128z" />
<glyph unicode="&#xe944;" glyph-name="chrome-dino-right" horiz-adv-x="951" d="M951.027 691.604v220.429h-47.859v47.966h-384.916v-47.966h-46.457v-307.739h-47.966v-46.565h-70.387v-47.966h-70.387v-47.966h-47.859v-46.457h-86.878v48.829h-46.457v46.026h-47.966v94.1h-53.895v-291.032h46.457v-47.427h47.859v-46.457h46.457v-47.966h47.966v-46.457h46.457v-188.955h101.753v53.895h-45.918v40.529h46.349v46.457h47.966v48.074h38.912v-30.504h47.966v-50.661h101.861v53.895h-48.397v73.728h47.966v47.966h46.457v70.494h48.182v164.918h38.912v-46.565h55.512v101.969h-94.424v86.986h188.416v55.512h-142.282v38.912zM621.514 834.102h-56.913v56.913h56.913z" />
<glyph unicode="&#xe945;" glyph-name="cloud1" d="M826 510.667q82-6 140-67t58-145q0-88-63-151t-151-63h-554q-106 0-181 75t-75 181q0 94 67 169t161 85q42 78 118 126t166 48q108 0 201-76t113-182z" />
<glyph unicode="&#xe946;" glyph-name="cloud_done" d="M426 212.667l282 282-60 60-222-220-88 88-60-60zM826 510.667q82-6 140-67t58-145q0-88-63-151t-151-63h-554q-106 0-181 75t-75 181q0 94 67 169t161 85q42 78 118 126t166 48q108 0 201-76t113-182z" />
<glyph unicode="&#xe947;" glyph-name="cloud_download" d="M726 384.667h-128v170h-172v-170h-128l214-214zM826 510.667q82-6 140-67t58-145q0-88-63-151t-151-63h-554q-106 0-181 75t-75 181q0 94 67 169t161 85q42 78 118 126t166 48q108 0 201-76t113-182z" />
<glyph unicode="&#xe948;" glyph-name="cloud_off" d="M330 512.667h-74q-70 0-120-51t-50-121 50-120 120-50h416zM128 714.667l54 54 714-714-54-54-86 84h-500q-106 0-181 75t-75 181q0 104 72 178t174 78zM826 510.667q82-6 140-67t58-145q0-110-90-174l-62 62q66 36 66 112 0 52-38 90t-90 38h-64v22q0 98-68 166t-166 68q-56 0-108-26l-64 62q78 50 172 50 108 0 201-76t113-182z" />
<glyph unicode="&#xe949;" glyph-name="cloud_queue" d="M810 170.667q52 0 90 38t38 90-38 90-90 38h-64v22q0 98-68 166t-166 68q-80 0-142-48t-84-122h-30q-70 0-120-51t-50-121 50-120 120-50h554zM826 510.667q82-6 140-67t58-145q0-88-63-151t-151-63h-554q-106 0-181 75t-75 181q0 94 67 169t161 85q42 78 118 126t166 48q108 0 201-76t113-182z" />
<glyph unicode="&#xe94a;" glyph-name="cloud_uploadbackup" d="M598 384.667h128l-214 212-214-212h128v-172h172v172zM826 510.667q82-6 140-67t58-145q0-88-63-151t-151-63h-554q-106 0-181 75t-75 181q0 94 67 169t161 85q42 78 118 126t166 48q108 0 201-76t113-182z" />
<glyph unicode="&#xe94b;" glyph-name="file_downloadget_app" d="M214 170.667h596v-86h-596v86zM810 554.667l-298-298-298 298h170v256h256v-256h170z" />
<glyph unicode="&#xe94c;" glyph-name="file_upload" d="M214 170.667h596v-86h-596v86zM384 256.667v256h-170l298 298 298-298h-170v-256h-256z" />
<glyph unicode="&#xe94d;" glyph-name="folder" d="M426 768.667l86-86h342q34 0 59-26t25-60v-426q0-34-25-60t-59-26h-684q-34 0-59 26t-25 60v512q0 34 25 60t59 26h256z" />
<glyph unicode="&#xe94e;" glyph-name="folder_open" d="M854 170.667v426h-684v-426h684zM854 682.667q34 0 59-26t25-60v-426q0-34-25-60t-59-26h-684q-34 0-59 26t-25 60v512q0 34 25 60t59 26h256l86-86h342z" />
<glyph unicode="&#xe94f;" glyph-name="create_new_folder" d="M810 340.667v86h-128v128h-84v-128h-128v-86h128v-128h84v128h128zM854 682.667q36 0 60-25t24-61v-426q0-36-24-61t-60-25h-684q-36 0-60 25t-24 61v512q0 36 24 61t60 25h256l86-86h342z" />
<glyph unicode="&#xe950;" glyph-name="computerlaptop" d="M170 682.667v-426h684v426h-684zM854 170.667h170v-86h-1024v86h170q-34 0-59 26t-25 60v426q0 34 25 60t59 26h684q34 0 59-26t25-60v-426q0-34-25-60t-59-26z" />
<glyph unicode="&#xe951;" glyph-name="desktop_mac" d="M896 340.667v428h-768v-428h768zM896 852.667q34 0 60-25t26-59v-512q0-34-26-60t-60-26h-298l84-128v-42h-340v42l84 128h-298q-34 0-60 26t-26 60v512q0 34 26 59t60 25h768z" />
<glyph unicode="&#xe952;" glyph-name="facebook" horiz-adv-x="1030" d="M1030.315 444.928c0 0.002 0 0.004 0 0.006 0 284.561-230.682 515.243-515.243 515.243s-515.243-230.682-515.243-515.243c0-256.182 186.965-468.696 431.89-508.535l2.969-0.398v359.936h-130.901v148.992h130.901v113.493c0 129.024 76.8 200.363 194.56 200.363 41.139-0.589 80.956-4.228 119.812-10.704l-4.612 0.635v-126.635h-64.853c-64 0-83.968-39.765-83.968-80.555v-96.597h142.848l-22.869-148.992h-119.467v-359.936c247.563 40.605 434.154 252.973 434.176 508.925v0.003z" />
<glyph unicode="&#xe953;" glyph-name="keyboard_arrow_left" d="M658 230.667l-60-60-256 256 256 256 60-60-196-196z" />
<glyph unicode="&#xe954;" glyph-name="keyboard_arrow_right" d="M366 230.667l196 196-196 196 60 60 256-256-256-256z" />
<glyph unicode="&#xe955;" glyph-name="imagotype" horiz-adv-x="6222" d="M6072.32 810.291c-92.4 92.245-219.967 149.289-360.857 149.289-282.091 0-510.771-228.68-510.771-510.771s228.68-510.771 510.771-510.771c281.807 0 510.31 228.219 510.771 509.919v0.044c0.002 0.492 0.003 1.075 0.003 1.657 0 140.935-57.31 268.484-149.896 360.614l-0.020 0.020zM5440.307 719.565c13.179 13.105 31.346 21.205 51.405 21.205 40.266 0 72.909-32.642 72.909-72.909s-32.642-72.909-72.909-72.909c-40.227 0-72.846 32.579-72.909 72.792v0.006c0 0.008 0 0.017 0 0.026 0 20.234 8.22 38.549 21.502 51.786l0.002 0.002zM5440.307 500.429c13.135 13.030 31.225 21.081 51.196 21.081 40.153 0 72.704-32.551 72.704-72.704s-32.551-72.704-72.704-72.704c-39.87 0-72.244 32.093-72.699 71.855v0.043c-0.004 0.29-0.007 0.632-0.007 0.975 0 20.13 8.227 38.339 21.503 51.446l0.008 0.007zM5783.962 156.57h-365.158v146.227h365.158zM5981.594 177.050c-12.949-12.671-30.691-20.489-50.258-20.489-0.403 0-0.805 0.003-1.207 0.010l0.060-0.001c-40.38 0-73.114 32.734-73.114 73.114s32.734 73.114 73.114 73.114v0c0.341 0.006 0.743 0.009 1.146 0.009 19.568 0 37.309-7.818 50.271-20.502l-0.013 0.013c13.032-13.136 21.086-31.227 21.086-51.2s-8.054-38.064-21.091-51.205l0.005 0.005zM6003.098 374.682h-365.158v147.046h365.158zM532.48 408.474c0.077-2.283 0.12-4.968 0.12-7.662 0-134.598-109.114-243.712-243.712-243.712-46.841 0-90.595 13.214-127.738 36.118l1.052-0.603v-256.614h-162.202v720.486h162.202v-32.358c36.302 22.521 80.341 35.869 127.498 35.869 1.329 0 2.655-0.011 3.979-0.032l-0.2 0.003c130.253 0 239.002-107.315 239.002-251.494zM374.374 408.474c0.079 1.592 0.124 3.457 0.124 5.332 0 62.993-50.695 114.145-113.513 114.885l-0.070 0.001c-0.951 0.026-2.071 0.041-3.195 0.041-38.476 0-72.916-17.281-95.982-44.504l-0.151-0.183v-151.142c22.947-26.937 56.897-43.909 94.81-43.909 1.589 0 3.17 0.030 4.745 0.089l-0.227-0.007c0.037 0 0.081 0 0.124 0 63.001 0 114.074 51.072 114.074 114.074 0 1.873-0.045 3.735-0.134 5.586l0.010-0.261zM776.192 872.755v-705.946h-161.792v705.946zM1390.387 656.486v-497.254h-161.587v33.382c-35.995-24.397-80.389-38.949-128.182-38.949-1.448 0-2.894 0.013-4.336 0.040l0.217-0.003c-130.253 0-239.616 111.411-239.616 254.771s109.363 253.542 239.616 253.542c1.707 0.046 3.716 0.071 5.732 0.071 47.123 0 90.936-14.172 127.41-38.487l-0.841 0.527v32.358zM1228.8 333.722v149.299c-23.096 26.352-56.821 42.9-94.411 42.9-1.729 0-3.45-0.035-5.162-0.104l0.246 0.008c-0.387 0.005-0.845 0.007-1.303 0.007-62.549 0-113.254-50.706-113.254-113.254 0-1.443 0.027-2.88 0.080-4.31l-0.006 0.206c-0.047-1.224-0.074-2.66-0.074-4.103 0-62.549 50.706-113.254 113.254-113.254 0.458 0 0.916 0.003 1.373 0.008l-0.070-0.001c1.545-0.068 3.358-0.107 5.179-0.107 37.471 0 71.095 16.47 94.028 42.565l0.121 0.14zM1921.024 563.507l-218.931-263.578h218.931v-133.12h-450.56v78.438l227.738 269.517h-223.642v134.349h446.464zM2802.483 446.157v-279.347h-160.563v259.482c0 65.741-33.792 89.498-79.667 89.498-0.659 0.016-1.435 0.025-2.214 0.025-31.117 0-58.893-14.309-77.105-36.706l-0.144-0.182c0.685-6.839 1.076-14.78 1.076-22.813 0-1.772-0.019-3.54-0.057-5.303l0.004 0.263v-284.262h-161.178v264.397c0 65.741-33.792 84.582-74.547 84.582-0.485 0.008-1.056 0.013-1.629 0.013-33.391 0-63.050-15.983-81.743-40.715l-0.187-0.258v-307.2h-162.611v481.485h162.202v-29.901c34.538 26.701 78.455 42.799 126.132 42.799 56.678 0 108.042-22.751 145.459-59.618l-0.025 0.025c40.919 37.002 95.433 59.645 155.235 59.645 1.658 0 3.311-0.017 4.961-0.052l-0.247 0.004c125.338 0 206.848-76.595 206.848-215.859zM3383.091 369.562h-348.16c7.552-50.45 50.583-88.698 102.548-88.698 2.398 0 4.777 0.081 7.135 0.242l-0.319-0.017c35.84 0 56.73 7.987 71.68 25.805h163.84c-28.877-94.413-118.374-153.19-231.834-153.19-158.106 0-263.373 107.52-263.373 254.771s102.4 253.542 251.494 253.542c168.55 0 270.95-121.242 246.989-292.454zM3035.955 462.131h200.909c-8.806 55.706-43.622 80.486-98.304 80.486-1.56 0.088-3.386 0.138-5.223 0.138-48.202 0-88.368-34.405-97.28-79.998l-0.102-0.626zM4000.768 872.755v-705.946h-161.178v23.757c-36.083-23.157-80.118-36.915-127.367-36.915-1.735 0-3.466 0.019-5.192 0.055l0.258-0.004c-130.253 0-239.616 109.568-239.616 253.747s109.363 252.518 239.616 252.518c1.621 0.041 3.53 0.064 5.444 0.064 47.19 0 91.090-14.087 127.724-38.285l-0.867 0.538v250.47zM3839.59 331.878v149.094c-23.167 26.356-56.95 42.9-94.598 42.9-1.736 0-3.463-0.035-5.182-0.105l0.247 0.008c-0.628 0.013-1.367 0.020-2.109 0.020-62.436 0-113.050-50.614-113.050-113.050 0-1.303 0.022-2.601 0.066-3.894l-0.005 0.188c-0.068-1.468-0.107-3.189-0.107-4.919 0-62.662 50.797-113.459 113.459-113.459 0.326 0 0.651 0.001 0.976 0.004h-0.050c1.606-0.073 3.489-0.115 5.381-0.115 37.847 0 71.789 16.72 94.842 43.177l0.129 0.151zM4283.392 649.114v-482.304h-161.178v482.304zM4897.587 656.486v-497.254h-161.178v33.382c-36.036-24.396-80.47-38.947-128.303-38.947-1.406 0-2.809 0.013-4.208 0.038l0.211-0.003c-130.253 0-239.616 111.411-239.616 254.771s109.363 253.542 239.616 253.542c1.671 0.044 3.64 0.068 5.614 0.068 47.162 0 91.014-14.17 127.532-38.486l-0.845 0.529v32.358zM4736.41 333.722v149.299c-23.167 26.356-56.95 42.9-94.598 42.9-1.736 0-3.463-0.035-5.182-0.105l0.247 0.008c-0.326 0.003-0.712 0.005-1.098 0.005-62.549 0-113.254-50.706-113.254-113.254 0-1.442 0.027-2.878 0.080-4.308l-0.006 0.206c-0.047-1.223-0.074-2.659-0.074-4.101 0-62.549 50.706-113.254 113.254-113.254 0.386 0 0.772 0.002 1.157 0.006h-0.059c1.551-0.069 3.37-0.108 5.198-0.108 37.528 0 71.211 16.467 94.216 42.569l0.119 0.137z" />
<glyph unicode="&#xe956;" glyph-name="info-warning" d="M723.627 960h-423.936l-299.691-299.691v-423.936l299.691-300.373h423.936l300.373 300.373v423.936zM450.56 753.152c15.904 15.606 37.718 25.239 61.781 25.239s45.877-9.633 61.795-25.253l-0.014 0.013c15.598-15.18 25.274-36.375 25.274-59.831 0-0.566-0.006-1.13-0.017-1.693l0.001 0.084c-0.006-48.255-39.126-87.37-87.381-87.37-23.957 0-45.663 9.641-61.448 25.255l0.008-0.008c-15.607 15.26-25.284 36.528-25.284 60.057 0 0.726 0.009 1.451 0.028 2.173l-0.002-0.107c-0.020 0.675-0.031 1.469-0.031 2.265 0 23.127 9.407 44.056 24.603 59.171l0.004 0.004zM669.013 140.8c0.015-0.309 0.024-0.67 0.024-1.034 0-6.3-2.626-11.987-6.843-16.025l-0.008-0.008c-4.325-4.506-10.349-7.353-17.038-7.509l-0.029-0.001h-266.923c-12.772 1.003-22.89 11.121-23.888 23.803l-0.006 0.090v60.075c1.003 12.772 11.121 22.89 23.803 23.888l0.090 0.006h65.536v215.723h-65.536c-0.332-0.019-0.721-0.030-1.112-0.030-6.41 0-12.139 2.921-15.926 7.504l-0.028 0.035c-4.621 4.2-7.51 10.234-7.51 16.944 0 0.043 0 0.086 0 0.13v-0.007 58.027c0.008 6.746 2.893 12.816 7.493 17.052l0.016 0.015c4.2 4.621 10.234 7.51 16.944 7.51 0.043 0 0.086 0 0.13 0h177.486c0.037 0 0.080 0 0.123 0 6.709 0 12.744-2.889 16.927-7.491l0.017-0.019c4.617-4.25 7.501-10.321 7.509-17.065v-298.326h64.853c6.718-0.156 12.741-3.003 17.059-7.501l0.008-0.008c4.225-4.046 6.851-9.733 6.851-16.033 0-0.364-0.009-0.725-0.026-1.084l0.002 0.051z" />
<glyph unicode="&#xe957;" glyph-name="isotype-code" d="M0 192h640v-256h-640v256zM896 192c70.692 0 128-57.308 128-128s-57.308-128-128-128c-70.692 0-128 57.308-128 128s57.308 128 128 128zM384 576h640v-256h-640v256zM128 576c70.692 0 128-57.308 128-128s-57.308-128-128-128c-70.692 0-128 57.308-128 128s57.308 128 128 128zM128 704c-70.692 0-128 57.308-128 128s57.308 128 128 128c70.692 0 128-57.308 128-128s-57.308-128-128-128z" />
<glyph unicode="&#xe958;" glyph-name="isotype-filling" d="M512 960c-282.77 0-512-229.23-512-512s229.23-512 512-512c282.77 0 512 229.23 512 512v0c0 282.77-229.23 512-512 512v0zM292.659 740.659c40.493 0 73.318-32.826 73.318-73.318s-32.826-73.318-73.318-73.318c-40.493 0-73.318 32.826-73.318 73.318v0c0 0.061 0 0.133 0 0.205 0 40.38 32.734 73.114 73.114 73.114 0.072 0 0.144 0 0.216 0h-0.011zM292.659 521.114c40.291-0.116 72.909-32.806 72.909-73.113 0-40.38-32.734-73.114-73.114-73.114s-73.113 32.734-73.114 73.113v0c0 0 0 0 0 0 0 40.38 32.734 73.114 73.114 73.114 0.072 0 0.144 0 0.216 0h-0.011zM585.114 155.341h-365.773v146.432h365.773zM731.341 155.341c-40.493 0-73.318 32.826-73.318 73.318s32.826 73.318 73.318 73.318c40.493 0 73.318-32.826 73.318-73.318v0c0-0.061 0-0.133 0-0.205 0-40.38-32.734-73.114-73.114-73.114-0.072 0-0.144 0-0.216 0h0.011zM804.659 374.886h-365.773v146.227h365.773z" />
<glyph unicode="&#xe959;" glyph-name="link-line" d="M953.251 889.251c-43.814 43.885-104.38 71.033-171.287 71.033s-127.473-27.148-171.284-71.029l-171.104-171.291c-6.742-6.742-10.912-16.056-10.912-26.345 0-20.577 16.681-37.257 37.257-37.257 10.288 0 19.603 4.17 26.345 10.912v0l171.101 171.287c30.352 30.352 72.282 49.125 118.598 49.125 92.631 0 167.723-75.092 167.723-167.723 0-46.315-18.773-88.246-49.125-118.598l-223.418-223.418c-30.325-30.335-72.224-49.098-118.505-49.098s-88.18 18.763-118.504 49.097l-0.001 0.001c-6.588 6.008-15.391 9.688-25.052 9.688-20.565 0-37.236-16.671-37.236-37.236 0-9.615 3.644-18.379 9.627-24.986l-0.028 0.032c43.805-43.829 104.333-70.939 171.194-70.939s127.389 27.11 171.193 70.938l223.419 223.419c43.617 43.937 70.572 104.464 70.572 171.287s-26.956 127.351-70.587 171.302l0.014-0.015zM505.297 204.288l-144.849-144.849c-30.325-30.335-72.224-49.098-118.505-49.098s-88.18 18.763-118.504 49.097l-0.001 0.001c-30.335 30.325-49.098 72.224-49.098 118.505s18.763 88.18 49.097 118.504l0.001 0.001 211.689 210.758c30.325 30.335 72.224 49.098 118.505 49.098s88.18-18.763 118.504-49.097l0.001-0.001c6.742-6.742 16.056-10.912 26.345-10.912 20.577 0 37.257 16.681 37.257 37.257 0 10.288-4.17 19.603-10.912 26.345v0c-43.805 43.829-104.333 70.939-171.194 70.939s-127.389-27.11-171.193-70.938l-0.001-0.001-211.689-210.758c-43.773-43.796-70.846-104.287-70.846-171.101 0-133.673 108.363-242.036 242.036-242.036 0.034 0 0.069 0 0.103 0h-0.006c0.29-0.001 0.633-0.002 0.976-0.002 66.548 0 126.78 27.045 170.303 70.743l0.008 0.008 145.222 144.849c6.742 6.742 10.912 16.056 10.912 26.345 0 20.577-16.681 37.257-37.257 37.257-10.288 0-19.603-4.17-26.345-10.912v0z" />
<glyph unicode="&#xe95a;" glyph-name="phonelink_off" d="M982 596.667q18 0 30-12t12-30v-426q0-18-12-31t-30-13h-8l-128 128h92v300h-170v-222l-86 86v178q0 18 13 30t31 12h256zM170 670.667v-458h458zM82 868.667q162-162 461-462t367-368l-54-54-100 100h-756v128h86v470q0 30 20 54l-78 78zM938 682.667h-562l-86 86h648v-86z" />
<glyph unicode="&#xe95b;" glyph-name="security" d="M512 896.667l384-172v-256q0-178-110-325t-274-187q-164 40-274 187t-110 325v256zM512 426.667v-382q118 38 200 143t98 239h-298zM512 426.667v376l-298-132v-244h298z" />
<glyph unicode="&#xe95c;" glyph-name="brightness_4" d="M512 170.667q106 0 181 75t75 181-75 181-181 75q-52 0-106-24 66-30 107-93t41-139-41-139-107-93q54-24 106-24zM854 568.667l140-142-140-142v-200h-200l-142-140-142 140h-200v200l-140 142 140 142v200h200l142 140 142-140h200v-200z" />
<glyph unicode="&#xe95d;" glyph-name="crop_original" d="M596 414.667l150-202h-468l116 152 84-102zM810 128.667v596h-596v-596h596zM810 810.667q34 0 60-26t26-60v-596q0-34-26-60t-60-26h-596q-34 0-60 26t-26 60v596q0 34 26 60t60 26h596z" />
<glyph unicode="&#xe95e;" glyph-name="dehaze" d="M86 704.667h852v-86h-852v86zM86 490.667h852v-86h-852v86zM86 276.667h852v-84h-852v84z" />
<glyph unicode="&#xe95f;" glyph-name="filter" d="M896 212.667v598h-598v-598h598zM896 896.667q34 0 60-26t26-60v-598q0-34-26-59t-60-25h-598q-34 0-59 25t-25 59v598q0 34 25 60t59 26h598zM128 724.667v-682h682v-86h-682q-34 0-60 26t-26 60v682h86zM680 498.667l152-200h-470l118 150 84-100z" />
<glyph unicode="&#xe960;" glyph-name="filter_drama" d="M810 170.667q52 0 90 38t38 90-38 90-90 38h-64v22q0 98-68 166t-166 68q-116 0-188-94 82-22 135-91t53-157h-86q0 70-50 121t-120 51-120-51-50-121 50-120 120-50h554zM826 510.667q82-6 140-67t58-145q0-88-63-151t-151-63h-554q-106 0-181 75t-75 181q0 94 67 169t161 85q38 72 121 123t163 51q108 0 201-76t113-182z" />
<glyph unicode="&#xe961;" glyph-name="link-strong" d="M624.64 560.826c-11.798 11.99-24.914 22.62-39.132 31.675l-0.897 0.534c-36.457 23.731-81.066 37.844-128.971 37.844-65.983 0-125.712-26.774-168.917-70.050l-216.905-217.091c-43.296-43.25-70.079-103.024-70.079-169.053 0-131.966 106.98-238.946 238.946-238.946 65.937 0 125.635 26.707 168.869 69.894l179.105 179.105c3.094 3.099 5.007 7.377 5.007 12.102 0 9.453-7.657 17.117-17.108 17.129h-6.89c-0.367-0.002-0.802-0.003-1.236-0.003-38.897 0-75.972 7.801-109.745 21.924l1.879-0.697c-1.9 0.801-4.11 1.267-6.428 1.267-4.784 0-9.105-1.983-12.186-5.172l-128.843-128.843c-18.535-18.535-44.141-29.999-72.425-29.999-56.567 0-102.424 45.857-102.424 102.424 0 28.284 11.464 53.89 29.999 72.425l217.833 217.647c18.503 18.53 44.078 29.993 72.332 29.993s53.829-11.463 72.33-29.992l0.001-0.001c12.495-11.764 29.374-18.993 47.942-18.993s35.447 7.229 47.977 19.026l-0.036-0.033c12.413 12.203 20.106 29.174 20.106 47.942s-7.692 35.739-20.096 47.932l-0.010 0.009zM953.809 889.996c-43.223 43.203-102.925 69.923-168.867 69.923s-125.644-26.72-168.868-69.924l0.001 0.001-179.107-178.735c-3.017-3.085-4.879-7.311-4.879-11.973 0-2.4 0.493-4.684 1.384-6.757l-0.043 0.111c2.621-6.177 8.634-10.43 15.641-10.43 0.13 0 0.26 0.001 0.39 0.004h6.311c0.016 0 0.036 0 0.056 0 39.318 0 76.799-7.868 110.953-22.116l-1.906 0.705c1.889-0.78 4.082-1.233 6.382-1.233 4.792 0 9.125 1.968 12.234 5.14l0.003 0.003 128.465 127.721c17.892 15.662 41.476 25.214 67.292 25.214 56.554 0 102.4-45.846 102.4-102.4 0-25.815-9.553-49.399-25.316-67.41l0.102 0.119-160.116-159.93-1.303-1.489-55.855-55.855c-18.503-18.53-44.078-29.993-72.332-29.993s-53.829 11.463-72.33 29.992l-0.001 0.001c-12.495 11.764-29.374 18.993-47.942 18.993s-35.447-7.229-47.977-19.026l0.036 0.033c-12.298-12.326-19.902-29.339-19.902-48.128s7.605-35.802 19.904-48.129l-0.001 0.001c19.282-19.378 41.885-35.431 66.886-47.236l1.442-0.612c3.537-1.676 7.075-2.979 10.612-4.468s7.447-2.793 10.985-4.096c2.831-1.19 6.483-2.46 10.217-3.535l0.767-0.189 10.054-2.607c6.703-1.676 13.591-3.165 20.666-4.282 7.282-1.177 16.011-2.044 24.869-2.406l0.451-0.015h13.033l10.24 1.117c3.724 0 7.633 1.117 12.102 1.117h5.772l11.729 1.676 5.585 1.117 9.868 2.048h1.862c43.945 11.017 81.759 32.942 111.719 62.753l-0.010-0.010 216.343 217.274c43.214 43.253 69.939 102.985 69.939 168.96s-26.726 125.707-69.941 168.962l0.002-0.002z" />
<glyph unicode="&#xe962;" glyph-name="navigate_beforechevron_left" d="M658 622.667l-196-196 196-196-60-60-256 256 256 256z" />
<glyph unicode="&#xe963;" glyph-name="navigate_nextchevron_right" d="M426 682.667l256-256-256-256-60 60 196 196-196 196z" />
<glyph unicode="&#xe964;" glyph-name="panorama" d="M362 404.667l-148-192h596l-192 256-148-192zM982 170.667q0-34-26-60t-60-26h-768q-34 0-60 26t-26 60v512q0 34 26 60t60 26h768q34 0 60-26t26-60v-512z" />
<glyph unicode="&#xe965;" glyph-name="logotype" horiz-adv-x="5353" d="M582.656 452.301c0-156.467-119.603-275.046-261.939-275.046-0.986-0.013-2.149-0.020-3.315-0.020-51.764 0-100.128 14.56-141.219 39.808l1.174-0.671v-280.371h-177.357v787.456h177.152v-35.226c39.749 24.579 87.944 39.144 139.54 39.144 1.343 0 2.684-0.010 4.022-0.030l-0.203 0.002c142.541 0 262.144-117.35 262.144-275.046zM409.805 452.301c0.090 1.78 0.142 3.864 0.142 5.961 0 68.521-54.895 124.22-123.105 125.519l-0.121 0.002c-1.027 0.027-2.236 0.043-3.448 0.043-42.112 0-79.82-18.858-105.139-48.591l-0.162-0.195v-165.274c25.209-29.456 62.426-48.007 103.976-48.007 1.679 0 3.35 0.030 5.014 0.090l-0.241-0.007c68.163 1.084 123.003 56.594 123.003 124.913 0 1.95-0.045 3.89-0.133 5.818l0.010-0.273zM848.486 960v-771.891h-177.152v771.891zM1519.616 723.456v-543.334h-176.128v36.25c-39.404-26.571-87.952-42.413-140.2-42.413-1.111 0-2.22 0.007-3.327 0.021l0.168-0.002c-143.36 0-262.144 122.88-262.144 278.323s119.603 277.299 262.144 277.299c1.607 0.037 3.501 0.058 5.4 0.058 51.316 0 99.057-15.307 138.906-41.604l-0.946 0.586v34.816zM1343.488 370.79v163.84c-25.18 28.868-62.030 47.007-103.116 47.007-1.909 0-3.809-0.039-5.699-0.117l0.271 0.009c-0.708 0.015-1.542 0.023-2.378 0.023-67.865 0-122.88-55.015-122.88-122.88 0-1.953 0.046-3.895 0.136-5.826l-0.010 0.273c-0.074-1.596-0.116-3.467-0.116-5.348 0-67.865 55.015-122.88 122.88-122.88 0.833 0 1.664 0.008 2.493 0.025l-0.124-0.002c1.826-0.087 3.966-0.137 6.118-0.137 40.677 0 77.214 17.726 102.307 45.876l0.119 0.136zM2099.61 621.875l-239.206-287.949h239.206v-145.818h-491.52v86.016l247.808 294.502h-243.302v146.842h487.014zM3063.194 493.67v-305.562h-175.514v283.853c0 71.68-37.069 97.69-87.040 97.69-0.563 0.010-1.227 0.016-1.893 0.016-34.364 0-65.013-15.909-84.982-40.764l-0.165-0.212c0.822-7.509 1.29-16.218 1.29-25.036 0-1.927-0.022-3.848-0.067-5.764l0.005 0.285v-310.067h-176.128v289.178c0 71.885-37.069 92.365-81.92 92.365-0.501 0.008-1.091 0.013-1.683 0.013-36.459 0-68.873-17.322-89.459-44.185l-0.198-0.269v-337.101h-177.152v527.36h177.152v-32.768c34.894 29.233 80.269 46.988 129.792 46.988 2.107 0 4.206-0.032 6.297-0.096l-0.306 0.007c3.267 0.186 7.088 0.292 10.935 0.292 59.306 0 112.724-25.208 150.124-65.494l0.119-0.129c44.773 40.557 104.456 65.38 169.937 65.38 1.745 0 3.486-0.018 5.222-0.053l-0.26 0.004c136.806 0 225.894-83.763 225.894-235.93zM3697.869 409.907h-381.542c8.262-55.126 55.286-96.916 112.070-96.916 2.651 0 5.28 0.091 7.885 0.27l-0.352-0.019c39.117 0 61.44 8.602 78.234 28.262h178.176c-31.539-102.4-129.229-167.526-253.133-167.526-172.851 0-288.154 117.555-288.154 278.323s112.026 277.299 275.046 277.299c185.958 0 297.779-132.71 271.77-319.693zM3317.76 511.078h219.75c-9.83 61.44-47.923 88.064-107.725 88.064-1.715 0.097-3.722 0.153-5.741 0.153-52.678 0-96.558-37.667-106.175-87.537l-0.109-0.679zM4372.89 960v-771.891h-176.128v26.214c-39.682-25.711-88.196-40.996-140.28-40.996-1.515 0-3.027 0.013-4.535 0.039l0.227-0.003c-143.36 0-261.939 119.603-261.939 277.299s119.603 276.070 261.939 276.070c2.066 0.061 4.497 0.096 6.936 0.096 51.219 0 98.859-15.324 138.586-41.637l-0.933 0.581v274.227zM4196.762 368.742v163.84c-25.314 28.755-62.204 46.802-103.309 46.802-1.913 0-3.817-0.039-5.711-0.117l0.271 0.009c-0.632 0.012-1.377 0.018-2.124 0.018-67.865 0-122.88-55.015-122.88-122.88 0-1.519 0.028-3.031 0.082-4.537l-0.006 0.218c-0.073-1.59-0.114-3.454-0.114-5.328 0-68.543 55.565-124.109 124.109-124.109 0.328 0 0.656 0.001 0.984 0.004h-0.050c1.833-0.088 3.98-0.138 6.14-0.138 40.774 0 77.388 17.811 102.486 46.077l0.123 0.141zM4681.933 715.469v-527.36h-176.333v527.36zM5353.062 723.456v-543.334h-176.128v36.25c-39.43-26.582-88.008-42.43-140.288-42.43-1.512 0-3.022 0.013-4.528 0.040l0.226-0.003c-142.336 0-261.939 122.88-261.939 278.323s119.603 277.299 261.939 277.299c1.944 0.054 4.232 0.084 6.527 0.084 51.353 0 99.129-15.317 139.008-41.631l-0.947 0.587v34.816zM5176.934 370.79v163.84c-25.216 28.873-62.096 47.011-103.213 47.011-1.947 0-3.884-0.041-5.812-0.121l0.275 0.009c-0.647 0.012-1.409 0.019-2.173 0.019-67.865 0-122.88-55.015-122.88-122.88 0-1.952 0.045-3.893 0.135-5.822l-0.010 0.273c-0.074-1.595-0.116-3.464-0.116-5.344 0-67.865 55.015-122.88 122.88-122.88 0.761 0 1.52 0.007 2.278 0.021l-0.114-0.002c1.858-0.090 4.036-0.141 6.226-0.141 40.708 0 77.275 17.727 102.405 45.882l0.118 0.135z" />
<glyph unicode="&#xe966;" glyph-name="rotate_left" d="M554 764.667q126-16 213-112t87-226-87-226-213-112v86q92 16 153 87t61 165-61 165-153 87v-166l-194 190 194 194v-132zM302 156.667l62 62q46-34 106-44v-86q-96 12-168 68zM260 384.667q10-58 42-106l-60-60q-56 74-68 166h86zM304 574.667q-36-52-44-106h-86q12 90 70 166z" />
<glyph unicode="&#xe967;" glyph-name="rotate_right" d="M720 278.667q34 46 44 106h86q-12-92-68-166zM554 174.667q60 10 106 44l62-62q-72-56-168-68v86zM850 468.667h-86q-10 60-44 106l62 60q58-72 68-166zM664 702.667l-194-190v166q-92-16-153-87t-61-165 61-165 153-87v-86q-126 16-213 112t-87 226 87 226 213 112v132z" />
<glyph unicode="&#xe968;" glyph-name="wb_cloudy" d="M826 510.667q82-6 140-67t58-145q0-88-63-151t-151-63h-554q-106 0-181 75t-75 181q0 94 67 169t161 85q42 78 118 126t166 48q116 0 204-73t110-185z" />
<glyph unicode="&#xe969;" glyph-name="add_photo_alternate" d="M214 128.667h512l-172 212-128-170-84 128zM682 468.667h128v-340q0-34-25-60t-59-26h-512q-34 0-60 26t-26 60v512q0 34 26 59t60 25h340v-128h128v-128zM810 640.667v-128h-84v128h-128v84h128v128h84v-128h128v-84h-128z" />
<glyph unicode="&#xe96a;" glyph-name="image_search" d="M662 554.667q44 0 75 31t31 75-31 76-75 32-76-32-32-76 32-75 76-31zM824 558.667l132-132-60-60-134 132q-50-30-102-30-80 0-135 56t-55 136 56 136 136 56 136-56 56-136q0-52-30-102zM704 170.667h-470l118 150 84-100 116 150zM768 384.667l86-86v-214q0-34-26-59t-60-25h-598q-34 0-59 25t-25 59v598q0 34 25 60t59 26h236q-20-42-22-86h-214v-598h598v300z" />
<glyph unicode="&#xe96b;" glyph-name="local_bar" d="M318 640.667h388l76 84h-540zM896 724.667l-342-384v-212h214v-86h-512v86h214v212l-342 384v86h768v-86z" />
<glyph unicode="&#xe96c;" glyph-name="local_cafefree_breakfast" d="M170 128.667h684v-86h-684v86zM854 596.667v128h-86v-128h86zM854 810.667q36 0 60-25t24-61v-128q0-36-24-60t-60-24h-86v-128q0-70-50-121t-120-51h-256q-70 0-121 51t-51 121v426h684z" />
<glyph unicode="&#xe96d;" glyph-name="pied-piper-last" horiz-adv-x="4177" d="M73.246 75.384l-73.246-137.577v749.688c0 0.107 0 0.235 0 0.362 0 150.3 121.843 272.143 272.143 272.143 0.127 0 0.254 0 0.382 0h748.825c-212.51-66.138-433.694-215.16-580.307-385.506-130.949-147.776-252.281-310.886-359.072-483.921l-8.724-15.188zM1023.157 960s-326.355-152.636-426.104-381.892c-52.887-122.639-66.138-269.854-162.274-362.496-66.138-63.488-158.66-86.859-239.857-128.783-52.887-27.347-151.672-92.642-194.078-150.829h749.688c0.143 0 0.313 0 0.482 0 150.3 0 272.143 121.843 272.143 272.143 0 0.127 0 0.254 0 0.382v-0.020 751.496zM4094.193 685.688c-0.274 0.004-0.598 0.007-0.922 0.007-19.107 0-36.137-8.897-47.172-22.773l-0.095-0.123v15.782c-0.048 3.956-3.265 7.144-7.228 7.144-0.255 0-0.506-0.013-0.754-0.039l0.031 0.003h-54.091v-348.401c0.067-4.364 3.587-7.884 7.945-7.951h53.856v265.035c1.479 17.796 16.284 31.679 34.334 31.684h89.149c4.391 0 7.951 3.56 7.951 7.951v0 50.839h-83.004v0.843zM3698.447 685.688c-57.344 0-104.087-35.298-104.087-101.436v-150.829c0-0.107-0.001-0.235-0.001-0.362 0-57.286 46.439-103.725 103.725-103.725 0.127 0 0.255 0 0.382 0.001h184.3v51.2c0 4.391-3.56 7.951-7.951 7.951h-176.369c-0.144-0.002-0.314-0.003-0.485-0.003-23.087 0-41.803 18.716-41.803 41.803 0 0.17 0.001 0.341 0.003 0.511v-0.026 63.488c6.108-8.089 15.706-13.262 26.511-13.262 0.294 0 0.587 0.004 0.879 0.011l-0.043-0.001h194.921c16.745 0 18.552 9.758 18.552 22.167v81.92c0 66.259-45.899 101.436-104.087 101.436h-94.449v-0.843zM3656.162 546.304v38.792c-0.079 0.936-0.124 2.027-0.124 3.127 0 21.757 17.637 39.394 39.394 39.394 1.061 0 2.113-0.042 3.153-0.124l-0.137 0.009h97.943c27.347 0 41.442-13.252 41.442-42.406v-38.792c0-4.391-3.56-7.951-7.951-7.951h-166.008c-4.265 0.3-7.651 3.686-7.95 7.924l-0.002 0.027zM3235.117 685.688c-0.252 0.010-0.547 0.016-0.843 0.016-12.176 0-22.046-9.87-22.046-22.046 0-0.006 0-0.011 0-0.017v0.001-508.024h53.85c4.391 0 7.951 3.56 7.951 7.951v0 188.777c11.443-14.084 28.763-23.010 48.168-23.010 0.007 0 0.014 0 0.021 0h82.039c57.344 0 104.087 40.599 104.087 100.593v155.166c0 70.596-46.743 100.593-104.087 100.593zM3274.029 424.629v194.078c0 4.391 3.56 7.951 7.951 7.951h122.519c23.010 0 42.406-9.758 42.406-42.406v-153.48c-0.069-23.368-19.028-42.285-42.405-42.285 0 0 0 0 0 0h-96.376c-18.394 2.677-32.616 17.516-34.322 35.983l-0.012 0.158zM3058.748 845.312v-58.187c0-4.391 3.56-7.951 7.951-7.951h53.489v58.187c0.001 0.036 0.001 0.079 0.001 0.121 0 4.325-3.506 7.831-7.831 7.831-0.043 0-0.085 0-0.128-0.001h0.006zM3058.748 685.688v-348.401c0.067-4.364 3.587-7.884 7.945-7.951h53.495v349.365c-0.048 3.956-3.265 7.144-7.228 7.144-0.255 0-0.506-0.013-0.754-0.039l0.031 0.003zM2697.216 685.688c-0.215 0.008-0.469 0.012-0.723 0.012-12.176 0-22.046-9.87-22.046-22.046 0-0.004 0-0.008 0-0.012v0.001-508.024h53.85c4.391 0 7.951 3.56 7.951 7.951v0 188.777c11.443-14.084 28.763-23.010 48.168-23.010 0.007 0 0.014 0 0.021 0h82.039c57.344 0 104.087 40.599 104.087 100.593v155.166c0 70.596-46.743 100.593-104.087 100.593zM2736.851 424.629v194.078c0 4.391 3.56 7.951 7.951 7.951h121.675c23.010 0 42.406-9.758 42.406-42.406v-153.48c-0.069-23.368-19.028-42.285-42.405-42.285 0 0 0 0 0 0h-96.376c-18.346 2.42-32.5 17.486-33.487 36.045l-0.004 0.096zM2501.331 863.624c-4.391 0-7.951-3.56-7.951-7.951v0-192.753c-11.129 14.017-28.169 22.926-47.29 22.926-0.74 0-1.476-0.013-2.209-0.040l0.106 0.003h-82.763c-0.041 0-0.090 0-0.139 0-56.421 0-102.159-45.738-102.159-102.159 0-0.678 0.007-1.354 0.020-2.029l-0.002 0.101v-148.179c0-0.107-0.001-0.235-0.001-0.362 0-57.286 46.439-103.725 103.725-103.725 0.127 0 0.255 0 0.382 0.001h169.241c0.182-0.005 0.396-0.008 0.611-0.008 12.375 0 22.408 10.032 22.408 22.408 0 0.215-0.003 0.429-0.009 0.642l0.001-0.031v511.157zM2321.468 429.929v154.323c-0.003 0.18-0.004 0.392-0.004 0.605 0 23.087 18.716 41.803 41.803 41.803 0.171 0 0.342-0.001 0.512-0.003h96.35c18.531-2.45 32.906-17.403 34.445-35.998l0.010-0.143v-193.958c-0.048-3.956-3.265-7.144-7.228-7.144-0.255 0-0.506 0.013-0.754 0.039l0.031-0.003h-122.88c-0.506-0.023-1.1-0.035-1.696-0.035-22.422 0-40.599 18.177-40.599 40.599 0 0.309 0.003 0.617 0.010 0.924l-0.001-0.046zM1979.211 685.688c-57.344 0-104.087-35.298-104.087-101.436v-150.829c0-0.107-0.001-0.235-0.001-0.362 0-57.286 46.439-103.725 103.725-103.725 0.127 0 0.255 0 0.382 0.001h184.3v51.2c0 4.391-3.56 7.951-7.951 7.951v0h-176.369c-0.18-0.003-0.393-0.004-0.607-0.004-23.021 0-41.683 18.662-41.683 41.683 0 0.213 0.002 0.426 0.005 0.639v-0.032 63.488c6.202-8.106 15.88-13.282 26.766-13.282 0.501 0 0.999 0.011 1.494 0.033l-0.071-0.002h194.921c16.745 0 18.552 9.758 18.552 22.167v81.92c0 66.259-45.899 101.436-104.087 101.436h-95.292v-0.843zM1936.926 546.304v38.792c-0.086 0.976-0.135 2.112-0.135 3.259 0 21.69 17.583 39.273 39.273 39.273 1.108 0 2.205-0.046 3.289-0.136l-0.142 0.009h97.943c28.19 0 41.442-13.252 41.442-42.406v-38.792c-0.067-4.364-3.587-7.884-7.945-7.951h-165.894c-4.214 0.358-7.538 3.724-7.829 7.924l-0.001 0.027zM1723.452 845.312v-58.187c-0.001-0.036-0.001-0.079-0.001-0.121 0-4.325 3.506-7.831 7.831-7.831 0.043 0 0.085 0 0.128 0.001h53.724v58.187c0.001 0.036 0.001 0.079 0.001 0.121 0 4.325-3.506 7.831-7.831 7.831-0.043 0-0.085 0-0.128-0.001h0.006zM1723.452 685.688v-348.401c0-4.391 3.56-7.951 7.951-7.951v0h53.73v349.365c-0.048 3.956-3.265 7.144-7.228 7.144-0.255 0-0.506-0.013-0.754-0.039l0.031 0.003zM1361.318 685.688c-0.288 0.014-0.625 0.021-0.964 0.021-12.109 0-21.926-9.816-21.926-21.926 0-0.050 0-0.1 0-0.149v0.008-508.024h53.73c0.036-0.001 0.079-0.001 0.121-0.001 4.325 0 7.831 3.506 7.831 7.831 0 0.043 0 0.085-0.001 0.128v-0.006 188.777c11.468-14.063 28.784-22.979 48.183-23.010h82.045c57.344 0 104.087 40.599 104.087 100.593v155.166c0 70.596-46.743 100.593-104.087 100.593zM1401.073 424.629v194.078c0 0 0 0.001 0 0.001 0 4.349 3.491 7.882 7.824 7.95h122.645c22.889 0 42.406-9.758 42.406-42.406v-153.48c-0.069-23.368-19.028-42.285-42.405-42.285 0 0 0 0 0 0h-96.376c-18.545 2.367-32.936 17.378-34.326 36.011l-0.008 0.13z" />
<glyph unicode="&#xe96e;" glyph-name="local_grocery_storeshopping_cart" d="M726 170.667q34 0 59-26t25-60-25-59-59-25-60 25-26 59 26 60 60 26zM42 852.667h140l40-84h632q18 0 30-13t12-31q0-2-6-20l-152-276q-24-44-74-44h-318l-38-70-2-6q0-10 10-10h494v-86h-512q-34 0-59 26t-25 60q0 20 10 40l58 106-154 324h-86v84zM298 170.667q34 0 60-26t26-60-26-59-60-25-59 25-25 59 25 60 59 26z" />
<glyph unicode="&#xe96f;" glyph-name="local_pizza" d="M512 298.667q34 0 60 26t26 60-26 59-60 25-60-25-26-59 26-60 60-26zM298 640.667q0-34 26-60t60-26 60 26 26 60-26 59-60 25-60-25-26-59zM512 852.667q230 0 384-170l-384-682-384 682q154 170 384 170z" />
<glyph unicode="&#xe970;" glyph-name="pied-piper-last-iso" horiz-adv-x="1023" d="M73.246 75.384l-73.246-137.577v749.688c0 0.107 0 0.235 0 0.362 0 150.3 121.843 272.143 272.143 272.143 0.127 0 0.254 0 0.382 0h748.825c-212.51-66.138-433.694-215.16-580.307-385.506-130.949-147.776-252.281-310.886-359.072-483.921l-8.724-15.188zM1023.157 960s-326.355-152.636-426.104-381.892c-52.887-122.639-66.138-269.854-162.274-362.496-66.138-63.488-158.66-86.859-239.857-128.783-52.887-27.347-151.672-92.642-194.078-150.829h749.688c0.143 0 0.313 0 0.482 0 150.3 0 272.143 121.843 272.143 272.143 0 0.127 0 0.254 0 0.382v-0.020 751.496z" />
<glyph unicode="&#xe971;" glyph-name="map" d="M640 128.667v506l-256 90v-506zM874 810.667q22 0 22-22v-644q0-16-16-20l-240-82-256 90-228-88-6-2q-22 0-22 22v644q0 16 16 20l240 82 256-90 228 88z" />
<glyph unicode="&#xe972;" glyph-name="plaz-astronaut" horiz-adv-x="803" d="M765.338 683.93h-12.288v156.877c11.767 5.018 19.866 16.488 19.866 29.85 0 17.871-14.487 32.358-32.358 32.358s-32.358-14.487-32.358-32.358c0-13.361 8.098-24.831 19.654-29.769l0.211-0.080v-88.064c-59.108 123.567-183.13 207.4-326.732 207.4-169.295 0-311.376-116.515-350.429-273.729l-0.522-2.483h-12.698c-0.434 0.019-0.944 0.029-1.455 0.029-20.020 0-36.25-16.229-36.25-36.25 0-0.442 0.008-0.883 0.024-1.322l-0.002 0.063v-98.099c-0.014-0.375-0.022-0.816-0.022-1.258 0-20.020 16.229-36.25 36.25-36.25 0.512 0 1.021 0.011 1.528 0.032l-0.073-0.002h12.698c20.038-79.529 63.911-146.812 123.467-195.688l0.642-0.511c-8.493-10.929-13.643-24.823-13.722-39.918v-0.018c0.057-6.242 1.102-12.22 2.985-17.812l-0.118 0.404c-67.818-25.632-115.726-88.796-118.569-163.504l-0.010-0.336v-145.613c0 0 0-0.001 0-0.002 0-6.9 5.593-12.493 12.493-12.493 0.072 0 0.144 0.001 0.216 0.002h150.722v268.493c7.025-4.696 15.209-9.399 23.705-13.564l1.281-0.567v-253.747h336.282v253.747c9.372 4.551 17.288 9.185 24.815 14.346l-0.648-0.42v-267.674h155.853c6.9 0 12.493 5.593 12.493 12.493v0 148.685c-1.94 39.656-16.695 75.53-40.174 103.925l0.238-0.297c-21.773 25.691-49.251 45.87-80.527 58.682l-1.393 0.505c1.3 4.338 2.049 9.324 2.049 14.484 0 0.092 0 0.184-0.001 0.276v-0.014c-0.282 15.090-5.393 28.934-13.846 40.108l0.125-0.172c60.198 49.387 104.071 116.67 123.566 193.666l0.543 2.532h12.493c0.432-0.018 0.939-0.029 1.449-0.029 20.133 0 36.454 16.321 36.454 36.454 0 0.37-0.006 0.739-0.016 1.107l0.001-0.054v98.099c-1.713 20.112-17.73 35.988-37.753 37.47l-0.135 0.008zM437.658 32.051c-0.518-5.901-5.436-10.494-11.427-10.494-0.375 0-0.746 0.018-1.112 0.053l0.047-0.004h-154.419c-0.319-0.032-0.69-0.050-1.065-0.050-5.991 0-10.909 4.594-11.424 10.451l-0.003 0.043v51.61c0.507 5.798 5.338 10.312 11.224 10.312 0.447 0 0.888-0.026 1.322-0.077l-0.053 0.005h153.805c0.381 0.046 0.822 0.072 1.269 0.072 5.886 0 10.717-4.514 11.221-10.269l0.003-0.042zM503.398 21.606c-19.253 0.116-34.816 15.751-34.816 35.020 0 19.341 15.679 35.021 35.021 35.021s35.020-15.679 35.021-35.020v0c0-0.003 0-0.006 0-0.010 0-19.341-15.679-35.021-35.021-35.021-0.288 0-0.575 0.003-0.862 0.010l0.042-0.001zM613.376 257.126c-1.993-4.060-4.314-7.559-7.020-10.718l0.057 0.068v-1.229c-3.072-3.277-6.349-6.963-10.445-10.65-7.314-6.231-15.499-11.868-24.233-16.624l-0.752-0.375c-14.349-7.999-30.997-14.974-48.452-20.051l-1.724-0.429h-1.434c-10.912-3.315-24.724-6.519-38.811-8.914l-2.149-0.302h-2.048l-19.456-2.662h-5.939c-5.734 0-11.469 0-17.203-1.229h-6.554c-7.782 0-15.974 0-23.962 0-12.288 0-23.962 0-35.43 1.638h-8.397c-10.854 0-21.709 2.458-31.539 3.891l-4.71 1.024c-8.602 1.434-16.589 3.277-24.576 5.12l-8.192 2.253c-9.799 2.456-17.792 4.982-25.589 7.908l1.627-0.535-6.349 2.458-16.179 7.168-6.758 3.277c-11.388 5.902-21.206 12.713-30.041 20.603l0.14-0.123-6.758 4.506c-3.448 3.6-6.499 7.629-9.052 11.985l-0.164 0.303c-3.475 5.746-5.531 12.688-5.531 20.11 0 0.13 0.001 0.26 0.002 0.39v-0.020c0.349 9.56 3.519 18.317 8.697 25.535l-0.096-0.14c9.218-6.747 19.791-13.526 30.77-19.664l1.588-0.816c4.915-2.867 10.035-5.734 15.155-8.192s11.059-5.325 16.794-7.782c41.953-18.639 90.896-29.493 142.374-29.493 0.346 0 0.693 0 1.039 0.001h-0.053c0.328-0.001 0.716-0.002 1.103-0.002 52.096 0 101.568 11.237 146.124 31.42l-2.229-0.903c5.734 2.458 11.264 4.915 16.998 7.782s10.445 5.325 15.36 8.192c10.445 5.939 20.48 12.288 29.901 19.046 5.083-7.079 8.253-15.835 8.599-25.312l0.002-0.083c0-0.008 0-0.018 0-0.028 0-6.799-1.904-13.154-5.209-18.56l0.089 0.156zM596.787 397.21c-7.728-7.57-15.941-14.745-24.549-21.434l-0.642-0.48c-4.301-3.482-9.011-6.758-13.517-9.83l-13.517-8.806-14.131-7.782c-37.211-19.745-81.354-31.338-128.205-31.338s-90.994 11.593-129.717 32.067l1.512-0.729-14.131 7.782-14.131 9.421c-5.18 3.392-9.586 6.626-13.818 10.067l0.301-0.237c-9.349 7.104-17.632 14.283-25.432 21.95l0.037-0.036c-51.951 50.678-84.173 121.374-84.173 199.596 0 153.94 124.793 278.733 278.733 278.733s278.733-124.793 278.733-278.733c0-78.222-32.221-148.918-84.116-199.54l-0.057-0.056zM283.238 42.291h128.819v31.13h-128.819zM583.885 714.24c-4.254-4.059-10.029-6.557-16.388-6.557-0.143 0-0.285 0.001-0.427 0.004h0.021c-0.008 0-0.017 0-0.026 0-7.335 0-13.913 3.24-18.381 8.368l-0.025 0.029c-88.064 95.846-230.4 59.597-232.038 58.573-1.965-0.554-4.222-0.873-6.554-0.873-13.829 0-25.039 11.21-25.039 25.039 0 11.497 7.749 21.185 18.31 24.125l0.176 0.042c7.168 2.048 173.466 45.875 282.214-74.138 3.832-4.341 6.171-10.079 6.171-16.364 0-7.211-3.080-13.703-7.997-18.232l-0.017-0.016zM638.362 622.49c-1.28-11.541-10.961-20.441-22.729-20.48h-1.233c-11.54 0.95-20.546 10.549-20.546 22.252 0 0.602 0.024 1.198 0.070 1.787l-0.005-0.078c0.006 0.402 0.009 0.878 0.009 1.354 0 14.32-3.018 27.935-8.452 40.244l0.251-0.638c-2.318 3.504-3.699 7.806-3.699 12.429 0 12.555 10.178 22.733 22.733 22.733 10.419 0 19.201-7.009 21.887-16.57l0.038-0.16c7.432-17.099 11.755-37.017 11.755-57.944 0-1.734-0.030-3.46-0.089-5.179l0.007 0.25z" />
<glyph unicode="&#xe973;" glyph-name="quote-round" horiz-adv-x="1170" d="M1138.278 416.051c-19.25 19.729-46.101 31.964-75.81 31.964-0.636 0-1.271-0.006-1.905-0.017l0.095 0.001h-182.886v146.227c-0.002 0.249-0.002 0.542-0.002 0.837 0 39.913 16.643 75.938 43.368 101.514l0.052 0.049c25.625 26.777 61.651 43.42 101.563 43.42 0.294 0 0.588-0.001 0.882-0.003h18.182c0.251-0.004 0.547-0.007 0.844-0.007 30.087 0 54.477 24.39 54.477 54.477 0 0.578-0.009 1.155-0.027 1.729l0.002-0.084v108.954c0.005 0.261 0.007 0.569 0.007 0.878 0 14.895-6.116 28.361-15.973 38.025l-0.009 0.009c-9.609 9.865-23.022 15.985-37.864 15.985-0.368 0-0.736-0.004-1.102-0.011l0.055 0.001h-18.227c-1.523 0.024-3.322 0.037-5.123 0.037-99.352 0-189.081-41.203-253.030-107.454l-0.1-0.104c-66.354-64.049-107.557-153.778-107.557-253.13 0-1.801 0.014-3.6 0.041-5.395l-0.003 0.271v-548.454c0-0.122-0.001-0.266-0.001-0.41 0-60.4 48.964-109.363 109.363-109.363 0.144 0 0.289 0 0.433 0.001h292.637c0.122 0 0.267-0.001 0.411-0.001 60.287 0 109.158 48.872 109.158 109.158 0 0.216-0.001 0.432-0.002 0.648v-0.033 292.454c0.010 0.548 0.016 1.194 0.016 1.841 0 29.763-12.233 56.669-31.946 75.965l-0.019 0.018zM402.227 448h-182.886v146.227c-0.001 0.145-0.001 0.317-0.001 0.489 0 40.021 16.637 76.157 43.372 101.867l0.046 0.044c25.755 26.781 61.89 43.418 101.911 43.418 0.172 0 0.343 0 0.515-0.001h18.2c0.312-0.006 0.68-0.010 1.049-0.010 30.087 0 54.477 24.39 54.477 54.477 0 0.58-0.009 1.157-0.027 1.733l0.002-0.084v108.954c0.005 0.261 0.007 0.569 0.007 0.878 0 14.895-6.116 28.361-15.973 38.025l-0.009 0.009c-9.673 9.866-23.139 15.982-38.034 15.982-0.309 0-0.617-0.003-0.924-0.008l0.046 0.001h-18.227c-1.523 0.024-3.322 0.037-5.123 0.037-99.352 0-189.081-41.203-253.030-107.454l-0.1-0.104c-66.354-64.049-107.557-153.778-107.557-253.13 0-1.801 0.014-3.6 0.041-5.395l-0.003 0.271v-548.454c-0.010-0.548-0.016-1.194-0.016-1.841 0-29.763 12.233-56.669 31.946-75.965l0.019-0.018c19.282-19.731 46.161-31.966 75.898-31.966 0.677 0 1.353 0.006 2.027 0.019l-0.101-0.001h292.454c0.183-0.001 0.4-0.002 0.616-0.002 60.287 0 109.158 48.872 109.158 109.158 0 0.217-0.001 0.433-0.002 0.649v-0.033 292.454c0.001 0.183 0.002 0.4 0.002 0.616 0 60.287-48.872 109.158-109.158 109.158-0.217 0-0.433-0.001-0.649-0.002h0.033z" />
<glyph unicode="&#xe974;" glyph-name="quote-squat" horiz-adv-x="1161" d="M466.534 756.634c19.818 8.888 33.372 28.444 33.372 51.166 0 8.64-1.96 16.823-5.459 24.127l0.145-0.336-45.875 96.461c-9.246 19.042-28.436 31.936-50.639 31.936-8.13 0-15.857-1.729-22.832-4.839l0.357 0.142c-78.364-32.512-145.472-76.825-202.578-131.501l0.235 0.224c-61.881-57.006-108.808-129.323-134.831-210.969l-0.951-3.456c-24.371-79.667-37.478-190.259-37.478-329.728v-286.72c-0.002-0.183-0.003-0.399-0.003-0.616 0-31.075 25.076-56.293 56.097-56.523h368.662c31.058 0.116 56.204 25.262 56.32 56.309v368.651c-0.116 31.058-25.262 56.204-56.309 56.32h-176.139c1.843 94.618 24.371 170.394 65.536 227.533 39.452 49.519 90.869 87.894 149.943 110.985l2.428 0.836zM1128.038 756.634c19.786 8.963 33.302 28.537 33.302 51.269 0 8.598-1.934 16.745-5.39 24.028l0.145-0.34-45.875 95.642c-9.278 18.949-28.421 31.767-50.557 31.767-8.161 0-15.916-1.742-22.912-4.875l0.356 0.142c-77.822-32.908-144.559-76.793-201.885-130.589l0.362 0.336c-61.916-57.535-109.098-130.092-135.805-211.904l-1.001-3.546q-36.454-117.965-36.454-328.704v-286.72c-0.002-0.183-0.003-0.399-0.003-0.615 0-31.147 25.192-56.41 56.312-56.524h368.651c30.986 0.115 56.089 25.145 56.32 56.093v368.662c-0.116 31.058-25.262 56.204-56.309 56.32h-177.573c1.843 94.618 24.371 170.394 65.536 227.533 39.537 49.65 91.1 88.105 150.35 111.192l2.431 0.834z" />
<glyph unicode="&#xe975;" glyph-name="near_me" d="M896 810.667l-322-768h-42l-112 292-292 112v42z" />
<glyph unicode="&#xe976;" glyph-name="show-off" horiz-adv-x="1474" d="M956.473 633.236l231.256 231.256c4.156 4.18 6.725 9.942 6.725 16.304s-2.569 12.124-6.726 16.305l0.001-0.001-58.276 56.195c-4.18 4.156-9.942 6.725-16.304 6.725s-12.124-2.569-16.305-6.726l0.001 0.001-134.128-133.897c-67.499 21.509-145.14 33.933-225.674 33.995h-0.031c-281.669 0-537.207-154.016-725.68-404.466-6.985-9.62-11.173-21.665-11.173-34.688s4.189-25.068 11.292-34.861l-0.119 0.172c73.25-97.578 158.613-180.882 255.034-249.689l3.51-2.38-92.502-93.89c-4.156-4.18-6.725-9.942-6.725-16.304s2.569-12.124 6.726-16.305l-0.001 0.001 55.964-58.508c4.18-4.156 9.942-6.725 16.304-6.725s12.124 2.569 16.305 6.726l251.836 252.068zM1462.461 448.694c-76.187 102.799-166.555 189.783-269.288 260.006l-3.825 2.469-579.758-579.989-116.784-115.628c72.845-25.317 156.807-39.96 244.184-40.007h0.022c281.901 0 536.976 154.016 725.449 404.466 7.027 9.487 11.249 21.421 11.249 34.341s-4.221 24.855-11.36 34.499l0.111-0.157z" />
<glyph unicode="&#xe977;" glyph-name="show-on" horiz-adv-x="1718" d="M858.813 960c-328.219 0-625.718-179.469-845.339-471.309-8.412-11.119-13.474-25.179-13.474-40.421s5.062-29.302 13.596-40.591l-0.123 0.169c219.621-292.379 517.12-471.848 845.339-471.848s625.987 179.469 845.608 471.309c8.253 11.173 13.21 25.218 13.21 40.421s-4.957 29.249-13.342 40.608l0.132-0.187c-219.621 292.379-517.389 471.848-845.608 471.848zM882.526 87.444c-7.106-0.498-15.4-0.782-23.759-0.782-199.576 0-361.364 161.788-361.364 361.364s161.788 361.364 361.364 361.364c199.576 0 361.364-161.788 361.364-361.364 0-8.258-0.277-16.451-0.822-24.571l0.059 1.1c-12.257-180.945-155.925-324.707-335.72-337.050l-1.122-0.062zM871.478 253.979c-3.666-0.246-7.947-0.387-12.26-0.387-107.453 0-194.56 87.107-194.56 194.56s87.107 194.56 194.56 194.56c107.453 0 194.56-87.107 194.56-194.56 0-4.415-0.147-8.795-0.437-13.137l0.031 0.589c-6.264-97.778-84.088-175.509-181.338-181.597l-0.557-0.028z" />
<glyph unicode="&#xe978;" glyph-name="fastfood" d="M44 212.667h640v-84h-640v84zM684 298.667h-642q0 98 66 164t160 82 189 0 161-82 66-164zM42 0.667v42h642v-42q0-18-13-30t-31-12h-554q-18 0-31 12t-13 30zM770-41.333v342q0 126-104 226-62 62-182 96l-12 100h212v174h84v-174h214l-72-702q-4-26-23-44t-45-18h-72z" />
<glyph unicode="&#xe979;" glyph-name="arrow_back" d="M854 468.667v-84h-520l238-240-60-60-342 342 342 342 60-60-238-240h520z" />
<glyph unicode="&#xe97a;" glyph-name="arrow_drop_down" d="M298 512.667h428l-214-214z" />
<glyph unicode="&#xe97b;" glyph-name="arrow_drop_up" d="M298 340.667l214 214 214-214h-428z" />
<glyph unicode="&#xe97c;" glyph-name="arrow_forward" d="M512 768.667l342-342-342-342-60 60 238 240h-520v84h520l-238 240z" />
<glyph unicode="&#xe97d;" glyph-name="cancel" d="M726 272.667l-154 154 154 154-60 60-154-154-154 154-60-60 154-154-154-154 60-60 154 154 154-154zM512 852.667q176 0 301-125t125-301-125-301-301-125-301 125-125 301 125 301 301 125z" />
<glyph unicode="&#xe97e;" glyph-name="check1" d="M384 248.667l452 452 60-60-512-512-238 238 60 60z" />
<glyph unicode="&#xe97f;" glyph-name="menu" d="M128 682.667h768v-86h-768v86zM128 384.667v84h768v-84h-768zM128 170.667v86h768v-86h-768z" />
<glyph unicode="&#xe980;" glyph-name="keyboard_control" d="M512 512.667q34 0 60-26t26-60-26-60-60-26-60 26-26 60 26 60 60 26zM768 512.667q34 0 60-26t26-60-26-60-60-26-60 26-26 60 26 60 60 26zM256 512.667q34 0 60-26t26-60-26-60-60-26-60 26-26 60 26 60 60 26z" />
<glyph unicode="&#xe981;" glyph-name="more_vert" d="M512 256.667q34 0 60-26t26-60-26-60-60-26-60 26-26 60 26 60 60 26zM512 512.667q34 0 60-26t26-60-26-60-60-26-60 26-26 60 26 60 60 26zM512 596.667q-34 0-60 26t-26 60 26 60 60 26 60-26 26-60-26-60-60-26z" />
<glyph unicode="&#xe982;" glyph-name="first_page" d="M256 682.667h86v-512h-86v512zM786 230.667l-60-60-256 256 256 256 60-60-196-196z" />
<glyph unicode="&#xe983;" glyph-name="last_page" d="M682 682.667h86v-512h-86v512zM238 622.667l60 60 256-256-256-256-60 60 196 196z" />
<glyph unicode="&#xe984;" glyph-name="arrow_left" d="M598 640.667v-428l-214 214z" />
<glyph unicode="&#xe985;" glyph-name="arrow_right" d="M426 212.667v428l214-214z" />
<glyph unicode="&#xe986;" glyph-name="arrow_back_ios" d="M498 772.667l-346-346 346-346-76-76-422 422 422 422z" />
<glyph unicode="&#xe987;" glyph-name="arrow_forward_ios" d="M250 762.667l92 90 426-426-426-426-92 90 338 336z" />
<glyph unicode="&#xe988;" glyph-name="adb" d="M640 554.667q18 0 30 12t12 30-12 31-30 13-30-13-12-31 12-30 30-12zM384 554.667q18 0 30 12t12 30-12 31-30 13-30-13-12-31 12-30 30-12zM688 752.667q122-90 122-240v-44h-596v44q0 150 122 240l-90 90 36 34 98-98q64 32 132 32t132-32l98 98 36-34zM214 256.667v170h596v-170q0-124-87-212t-211-88-211 88-87 212z" />
<glyph unicode="&#xe98a;" glyph-name="event_available" d="M810 128.667v468h-596v-468h596zM810 810.667q34 0 60-26t26-60v-596q0-34-26-60t-60-26h-596q-36 0-61 25t-25 61v596q0 34 25 60t61 26h42v86h86v-86h340v86h86v-86h42zM706 466.667l-254-254-136 136 46 46 90-90 208 208z" />
<glyph unicode="&#xe98b;" glyph-name="event_busy" d="M810 128.667v468h-596v-468h596zM810 810.667q34 0 60-26t26-60v-596q0-34-26-60t-60-26h-596q-36 0-61 25t-25 61v596q0 34 25 60t61 26h42v86h86v-86h340v86h86v-86h42zM398 212.667l-46 46 104 104-104 104 46 46 104-104 104 104 44-46-104-104 104-104-44-46-104 104z" />
<glyph unicode="&#xe98c;" glyph-name="event_note" d="M598 340.667v-84h-300v84h300zM810 128.667v468h-596v-468h596zM810 810.667q34 0 60-26t26-60v-596q0-34-26-60t-60-26h-596q-36 0-61 25t-25 61v596q0 34 25 60t61 26h42v86h86v-86h340v86h86v-86h42zM726 512.667v-86h-428v86h428z" />
<glyph unicode="&#xe98d;" glyph-name="no_encryption" d="M380 682.667v-52l-78 78q10 80 69 134t141 54q88 0 151-63t63-151v-86h42q34 0 60-25t26-59v-356l-442 440h232v86q0 54-39 93t-93 39-93-39-39-93zM896 8.667l-52-52-48 48q-16-4-28-4h-512q-34 0-60 25t-26 59v428q0 50 46 74l-88 86 52 52z" />
<glyph unicode="&#xe98f;" glyph-name="cake" d="M768 554.667q52 0 90-38t38-90v-66q0-34-25-59t-59-25-58 24l-92 92-92-92q-24-24-59-24t-59 24l-90 92-92-92q-24-24-58-24t-59 25-25 59v66q0 52 38 90t90 38h214v86h84v-86h214zM708 256.667q44-44 104-44 44 0 84 26v-196q0-18-12-30t-30-12h-684q-18 0-30 12t-12 30v196q38-26 84-26 60 0 104 44l46 46 46-46q42-42 104-42t104 42l46 46zM512 682.667q-34 0-60 26t-26 60q0 22 14 44l72 126 72-126q14-22 14-44 0-36-25-61t-61-25z" />
<glyph unicode="&#xe990;" glyph-name="notifications" d="M768 256.667l86-86v-42h-684v42l86 86v212q0 100 51 174t141 96v30q0 26 18 45t46 19 46-19 18-45v-30q90-22 141-96t51-174v-212zM512 0.667q-36 0-61 24t-25 60h172q0-34-26-59t-60-25z" />
<glyph unicode="&#xe991;" glyph-name="notifications_none" d="M682 212.667v256q0 82-46 137t-124 55-124-55-46-137v-256h340zM768 256.667l86-86v-42h-684v42l86 86v212q0 100 51 174t141 96v30q0 26 18 45t46 19 46-19 18-45v-30q90-22 141-96t51-174v-212zM512 0.667q-34 0-60 25t-26 59h172q0-34-26-59t-60-25z" />
<glyph unicode="&#xe992;" glyph-name="person" d="M512 340.667q108 0 225-47t117-123v-86h-684v86q0 76 117 123t225 47zM512 426.667q-70 0-120 50t-50 120 50 121 120 51 120-51 50-121-50-120-120-50z" />
<glyph unicode="&#xe993;" glyph-name="person_add" d="M640 340.667q108 0 225-47t117-123v-86h-684v86q0 76 117 123t225 47zM256 512.667h128v-86h-128v-128h-86v128h-128v86h128v128h86v-128zM640 426.667q-70 0-120 50t-50 120 50 121 120 51 120-51 50-121-50-120-120-50z" />
<glyph unicode="&#xe994;" glyph-name="person_outlineperm_identity" d="M512 384.667q64 0 140-18t139-60 63-94v-128h-684v128q0 52 63 94t139 60 140 18zM512 768.667q70 0 120-51t50-121-50-120-120-50-120 50-50 120 50 121 120 51zM512 302.667q-88 0-174-33t-86-57v-46h520v46q0 24-86 57t-174 33zM512 686.667q-38 0-64-26t-26-64 26-63 64-25 64 25 26 63-26 64-64 26z" />
<glyph unicode="&#xe995;" glyph-name="public" d="M764 196.667q90 96 90 230 0 106-59 192t-155 124v-18q0-34-26-59t-60-25h-84v-86q0-18-13-30t-31-12h-84v-86h256q18 0 30-12t12-30v-128h42q60 0 82-60zM470 88.667v82q-34 0-60 26t-26 60v42l-204 204q-10-40-10-76 0-130 87-226t213-112zM512 852.667q176 0 301-125t125-301-125-301-301-125-301 125-125 301 125 301 301 125z" />
<glyph unicode="&#xe996;" glyph-name="thumb_down_alt" d="M92 464.667l114 262q26 42 74 42h346q42 0 71-29t29-71v-334q0-36-26-62l-274-272-18 20q-24 24-38 52-6 14-4 28l40 198h-236q-34 0-59 26t-25 60v46q0 20 6 34zM938 768.667v-470h-84q-18 0-31 12t-13 30v384q0 18 13 31t31 13h84z" />
<glyph unicode="&#xe997;" glyph-name="thumb_up_alt" d="M932 388.667l-114-262q-26-42-74-42h-346q-40 0-70 30t-30 70v334q0 36 26 62l274 272 18-20q24-24 38-52 6-14 4-28l-40-198h236q34 0 59-26t25-60v-46q0-18-6-34zM86 84.667v470h84q18 0 31-12t13-30v-384q0-18-13-31t-31-13h-84z" />
<glyph unicode="&#xe998;" glyph-name="check_box" d="M426 212.667l384 384-60 62-324-324-152 152-60-60zM810 810.667q36 0 61-25t25-61v-596q0-36-25-61t-61-25h-596q-36 0-61 25t-25 61v596q0 36 25 61t61 25h596z" />
<glyph unicode="&#xe999;" glyph-name="check_box_outline_blank" d="M810 810.667q34 0 60-26t26-60v-596q0-34-26-60t-60-26h-596q-34 0-60 26t-26 60v596q0 34 26 60t60 26h596zM810 724.667h-596v-596h596v596z" />
<glyph unicode="&#xe99a;" glyph-name="account_box" d="M256 212.667v-42h512v42q0 58-88 95t-168 37-168-37-88-95zM640 554.667q0 52-38 90t-90 38-90-38-38-90 38-90 90-38 90 38 38 90zM128 724.667q0 36 25 61t61 25h596q34 0 60-26t26-60v-596q0-34-26-60t-60-26h-596q-36 0-61 25t-25 61v596z" />
<glyph unicode="&#xe99b;" glyph-name="account_circle" d="M512 118.667q68 0 143 40t113 98q-2 56-90 94t-166 38-166-37-90-95q38-58 113-98t143-40zM512 724.667q-52 0-90-38t-38-90 38-90 90-38 90 38 38 90-38 90-90 38zM512 852.667q176 0 301-125t125-301-125-301-301-125-301 125-125 301 125 301 301 125z" />
<glyph unicode="&#xe99c;" glyph-name="android1" d="M640 724.667v44h-42v-44h42zM426 724.667v44h-42v-44h42zM662 846.667q106-76 106-206h-512q0 54 30 114t74 92l-56 56q-16 16 0 30t30 0l64-64q52 28 114 28 52 0 112-28l64 64q16 14 30 0t0-30zM874 596.667q26 0 45-19t19-45v-298q0-28-19-46t-45-18-45 18-19 46v298q0 26 19 45t45 19zM150 596.667q26 0 45-19t19-45v-298q0-28-19-46t-45-18-45 18-19 46v298q0 26 19 45t45 19zM256 170.667v426h512v-426q0-18-12-30t-30-12h-44v-150q0-28-19-46t-45-18-45 18-19 46v150h-84v-150q0-28-19-46t-45-18-45 18-19 46v150h-44q-18 0-30 12t-12 30z" />
<glyph unicode="&#xe99d;" glyph-name="assignment_turned_in" d="M426 212.667l342 342-60 60-282-280-110 110-60-60zM512 810.667q-18 0-30-12t-12-30 12-31 30-13 30 13 12 31-12 30-30 12zM810 810.667q34 0 60-26t26-60v-596q0-34-26-60t-60-26h-596q-34 0-60 26t-26 60v596q0 34 26 60t60 26h178q14 38 46 62t74 24 74-24 46-62h178z" />
<glyph unicode="&#xe99e;" glyph-name="autorenew" d="M800 608.667q54-82 54-182 0-140-101-241t-241-101v-128l-170 172 170 170v-128q106 0 181 75t75 181q0 60-30 120zM512 682.667q-106 0-181-75t-75-181q0-64 30-120l-62-62q-54 82-54 182 0 140 101 241t241 101v128l170-172-170-170v128z" />
<glyph unicode="&#xe99f;" glyph-name="bookmarkturned_in" d="M726 810.667q34 0 59-26t25-60v-682l-298 128-298-128v682q0 34 25 60t59 26h428z" />
<glyph unicode="&#xe9a0;" glyph-name="bookmark_outlineturned_in_not" d="M726 170.667v554h-428v-554l214 94zM726 810.667q34 0 59-26t25-60v-682l-298 128-298-128v682q0 34 25 60t59 26h428z" />
<glyph unicode="&#xe9a2;" glyph-name="check_circle" d="M426 212.667l384 384-60 62-324-324-152 152-60-60zM512 852.667q176 0 301-125t125-301-125-301-301-125-301 125-125 301 125 301 301 125z" />
<glyph unicode="&#xe9a3;" glyph-name="delete" d="M810 768.667v-86h-596v86h148l44 42h212l44-42h148zM256 128.667v512h512v-512q0-34-26-60t-60-26h-340q-34 0-60 26t-26 60z" />
<glyph unicode="&#xe9a4;" glyph-name="done" d="M384 246.667l452 454 60-60-512-512-238 238 58 60z" />
<glyph unicode="&#xe9a5;" glyph-name="favorite" d="M512 28.667l-62 56q-106 96-154 142t-107 114-81 123-22 113q0 98 67 166t167 68q116 0 192-90 76 90 192 90 100 0 167-68t67-166q0-78-52-162t-113-146-199-186z" />
<glyph unicode="&#xe9a6;" glyph-name="favorite_outline" d="M516 146.667q96 86 142 130t100 104 75 106 21 90q0 64-43 106t-107 42q-50 0-93-28t-59-72h-80q-16 44-59 72t-93 28q-64 0-107-42t-43-106q0-44 21-90t75-106 100-104 142-130l4-4zM704 810.667q100 0 167-68t67-166q0-58-22-113t-81-123-107-114-154-142l-62-56-62 54q-138 124-199 186t-113 146-52 162q0 98 67 166t167 68q116 0 192-90 76 90 192 90z" />
<glyph unicode="&#xe9a7;" glyph-name="highlight_remove" d="M512 84.667q140 0 241 101t101 241-101 241-241 101-241-101-101-241 101-241 241-101zM512 852.667q176 0 301-125t125-301-125-301-301-125-301 125-125 301 125 301 301 125zM622 596.667l60-60-110-110 110-110-60-60-110 110-110-110-60 60 110 110-110 110 60 60 110-110z" />
<glyph unicode="&#xe9a8;" glyph-name="home2" d="M426 84.667h-212v342h-128l426 384 426-384h-128v-342h-212v256h-172v-256z" />
<glyph unicode="&#xe9a9;" glyph-name="hourglass_empty" d="M512 448.667l170 170v150h-340v-150zM682 234.667l-170 170-170-170v-150h340v150zM256 852.667h512v-256l-170-170 170-170v-256h-512v256l170 170-170 170v256z" />
<glyph unicode="&#xe9aa;" glyph-name="hourglass_full" d="M256 852.667h512v-256l-170-170 170-170v-256h-512v256l170 170-170 170v256z" />
<glyph unicode="&#xe9ab;" glyph-name="httpslock" d="M644 596.667v86q0 54-39 93t-93 39-93-39-39-93v-86h264zM512 212.667q34 0 60 26t26 60-26 60-60 26-60-26-26-60 26-60 60-26zM768 596.667q34 0 60-25t26-59v-428q0-34-26-59t-60-25h-512q-34 0-60 25t-26 59v428q0 34 26 59t60 25h42v86q0 88 63 151t151 63 151-63 63-151v-86h42z" />
<glyph unicode="&#xe9ad;" glyph-name="lock_open" d="M768 84.667v428h-512v-428h512zM768 596.667q34 0 60-25t26-59v-428q0-34-26-59t-60-25h-512q-34 0-60 25t-26 59v428q0 34 26 59t60 25h388v86q0 54-39 93t-93 39-93-39-39-93h-82q0 88 63 151t151 63 151-63 63-151v-86h42zM512 212.667q-34 0-60 26t-26 60 26 60 60 26 60-26 26-60-26-60-60-26z" />
<glyph unicode="&#xe9ae;" glyph-name="lock_outline" d="M768 84.667v428h-512v-428h512zM380 682.667v-86h264v86q0 54-39 93t-93 39-93-39-39-93zM768 596.667q34 0 60-25t26-59v-428q0-34-26-59t-60-25h-512q-34 0-60 25t-26 59v428q0 34 26 59t60 25h42v86q0 88 63 151t151 63 151-63 63-151v-86h42zM512 212.667q-34 0-60 26t-26 60 26 60 60 26 60-26 26-60-26-60-60-26z" />
<glyph unicode="&#xe9af;" glyph-name="search1" d="M406 340.667q80 0 136 56t56 136-56 136-136 56-136-56-56-136 56-136 136-56zM662 340.667l212-212-64-64-212 212v34l-12 12q-76-66-180-66-116 0-197 80t-81 196 81 197 197 81 196-81 80-197q0-42-20-95t-46-85l12-12h34z" />
<glyph unicode="&#xe9b0;" glyph-name="settings" d="M512 276.667q62 0 106 44t44 106-44 106-106 44-106-44-44-106 44-106 106-44zM830 384.667l90-70q14-10 4-28l-86-148q-8-14-26-8l-106 42q-42-30-72-42l-16-112q-4-18-20-18h-172q-16 0-20 18l-16 112q-38 16-72 42l-106-42q-18-6-26 8l-86 148q-10 18 4 28l90 70q-2 14-2 42t2 42l-90 70q-14 10-4 28l86 148q8 14 26 8l106-42q42 30 72 42l16 112q4 18 20 18h172q16 0 20-18l16-112q38-16 72-42l106 42q18 6 26-8l86-148q10-18-4-28l-90-70q2-14 2-42t-2-42z" />
<glyph unicode="&#xe9b1;" glyph-name="shopping_basket" d="M512 212.667q34 0 60 26t26 60-26 60-60 26-60-26-26-60 26-60 60-26zM384 554.667h256l-128 188zM734 554.667h204q18 0 31-12t13-30q-20-80-60-225t-50-183q-18-62-82-62h-556q-64 0-82 62l-108 396q-2 4-2 12 0 18 13 30t31 12h204l186 280q12 18 36 18 26 0 36-18z" />
<glyph unicode="&#xe9b2;" glyph-name="swap_vertical_circle" d="M746 298.667h-106v170h-86v-170h-106l150-150zM278 554.667h106v-170h86v170h106l-150 150zM512 852.667q176 0 301-125t125-301-125-301-301-125-301 125-125 301 125 301 301 125z" />
<glyph unicode="&#xe9b3;" glyph-name="system_update_alt" d="M896 788.667q34 0 60-25t26-59v-598q0-34-26-60t-60-26h-768q-34 0-60 26t-26 60v598q0 34 26 59t60 25h256v-84h-256v-598h768v598h-256v84h256zM512 234.667l-170 170h128v384h84v-384h128z" />
<glyph unicode="&#xe9b6;" glyph-name="translate" d="M678 212.667h138l-70 186zM790 512.667l192-512h-86l-48 128h-202l-48-128h-86l192 512h86zM550 296.667l-34-88-132 132-214-212-60 60 218 214q-80 88-128 194h86q42-80 98-142 92 102 136 228h-478v86h300v84h84v-84h300v-86h-126q-20-64-66-145t-92-133l-2-2z" />
<glyph unicode="&#xe9b8;" glyph-name="view_quilt" d="M426 724.667h470v-256h-470v256zM682 170.667v256h214v-256h-214zM170 170.667v554h214v-554h-214zM426 170.667v256h214v-256h-214z" />
<glyph unicode="&#xe9b9;" glyph-name="view_stream" d="M170 724.667h726v-256h-726v256zM170 170.667v256h726v-256h-726z" />
<glyph unicode="&#xe9ba;" glyph-name="view_week" d="M554 724.667q18 0 31-12t13-30v-512q0-18-13-30t-31-12h-128q-18 0-30 12t-12 30v512q0 18 12 30t30 12h128zM854 724.667q18 0 30-12t12-30v-512q0-18-12-30t-30-12h-128q-18 0-31 12t-13 30v512q0 18 13 30t31 12h128zM256 724.667q18 0 30-12t12-30v-512q0-18-12-30t-30-12h-128q-18 0-30 12t-12 30v512q0 18 12 30t30 12h128z" />
<glyph unicode="&#xe9bc;" glyph-name="http" d="M918 448.667v42h-86v-42h86zM918 554.667q26 0 45-19t19-45v-42q0-26-19-45t-45-19h-86v-86h-64v256h150zM534 490.667v64h192v-64h-64v-192h-64v192h-64zM298 490.667v64h192v-64h-64v-192h-64v192h-64zM192 468.667v86h64v-256h-64v106h-86v-106h-64v256h64v-86h86z" />
<glyph unicode="&#xe9bf;" glyph-name="fingerprint" d="M636 0.667h-6q-92 24-158 90-38 38-65 103t-27 119q0 52 38 89t92 37 93-37 39-89q0-34 25-58t63-24 64 24 26 58q0 120-91 206t-219 86q-92 0-168-47t-114-125q-24-50-24-120 0-80 28-154 6-20-14-26t-26 12q-32 82-32 168 0 78 30 138 42 90 129 144t191 54q146 0 249-99t103-237q0-52-39-88t-93-36-92 36-38 88q0 34-26 59t-64 25-63-25-25-59q0-112 80-192 56-56 140-78 18-2 14-26-4-16-20-16zM530 312.667q0-74 55-128t137-54q4 0 18 2t23 2 18-3 11-13q4-22-18-26-24-4-52-4-80 0-132 38-102 70-102 186 0 22 22 22 20 0 20-22zM416 8.667q-8 0-14 6-54 54-86 114-46 80-46 184 0 94 71 162t171 68 171-68 71-162q0-20-22-20t-22 20q0 78-58 133t-140 55-140-55-58-133q0-96 38-164 26-46 80-104 16-14 0-30-6-6-16-6zM150 524.667q-22 0-22 20 0 4 4 12 64 92 160 140 100 52 220 52t220-52q98-48 160-138 4-8 4-12 0-14-16-20t-24 8q-60 82-144 124-92 46-200 47t-200-47q-90-46-146-126-6-8-16-8zM760 748.667q-8 0-10 2-118 60-238 60-130 0-238-60-10-6-20 0t-10 18q0 14 10 20 116 64 258 64 130 0 258-64 18-10 8-28-8-12-18-12z" />
<glyph unicode="&#xe9c1;" glyph-name="g_translate" d="M918 64.667v596q0 18-13 31t-31 13h-386l56-162h62v54h54v-54h194v-56h-82q-30-100-102-180l140-140-40-38-132 132 44-132-84-108h276q18 0 31 13t13 31zM562 486.667l34-100 36-48q62 68 88 148h-158zM298 256.667q92 0 149 58t57 150q0 2-6 44h-200v-74h126q-4-38-36-70t-90-32q-56 0-95 40t-39 96q0 58 39 98t95 40q54 0 88-34l56 54q-62 56-144 56-88 0-150-63t-62-151 62-150 150-62zM896 768.667q34 0 60-26t26-60v-640q0-34-26-60t-60-26h-384l-42 128h-342q-34 0-60 26t-26 60v640q0 34 26 60t60 26h298l44-128h426z" />
<glyph unicode="&#xe9c2;" glyph-name="remove_shopping_cart" d="M298 170.667q34 0 60-26t26-60-26-59-60-25-59 25-25 59 25 60 59 26zM664 384.667l-384 384h574q18 0 30-13t12-31q0-2-6-20l-152-276q-24-44-74-44zM316 298.667h216l-86 86h-100l-38-70-2-6q0-10 10-10zM970-31.333l-54-54-122 122q-26-36-68-36-34 0-60 25t-26 59q0 44 36 70l-60 58h-318q-34 0-59 26t-25 60q0 20 10 40l58 106-94 198-188 188 54 54z" />
<glyph unicode="&#xe9c3;" glyph-name="delete_forever" d="M662 768.667h148v-86h-596v86h148l44 42h212zM360 432.667l92-92-90-90 60-60 90 90 90-90 60 60-90 90 90 92-60 60-90-92-90 92zM256 128.667v512h512v-512q0-34-26-60t-60-26h-340q-34 0-60 26t-26 60z" />
<glyph unicode="&#xe9c4;" glyph-name="check_circle_outline" d="M512 84.667q140 0 241 101t101 241-101 241-241 101-241-101-101-241 101-241 241-101zM512 852.667q176 0 301-125t125-301-125-301-301-125-301 125-125 301 125 301 301 125zM708 614.667l60-60-342-342-212 214 60 60 152-152z" />
<glyph unicode="&#xe9c5;" glyph-name="delete_outline" d="M662 768.667h148v-86h-596v86h148l44 42h212zM342 554.667v-426h340v426h-340zM256 128.667v512h512v-512q0-34-26-60t-60-26h-340q-34 0-60 26t-26 60z" />
<glyph unicode="&#xe9c6;" glyph-name="replay_circle_filled" d="M768 426.667q0 106-75 181t-181 75v128l-170-170 170-172v128q70 0 120-50t50-120-50-120-120-50-120 50-50 120h-86q0-106 75-181t181-75 181 75 75 181zM512 852.667q176 0 301-125t125-301-125-301-301-125-301 125-125 301 125 301 301 125z" />
<glyph unicode="&#xe9c7;" glyph-name="toggle_off" d="M298 298.667q52 0 90 38t38 90-38 90-90 38-90-38-38-90 38-90 90-38zM726 640.667q88 0 150-63t62-151-62-151-150-63h-428q-88 0-150 63t-62 151 62 151 150 63h428z" />
<glyph unicode="&#xe9c8;" glyph-name="toggle_on" d="M726 298.667q52 0 90 38t38 90-38 90-90 38-90-38-38-90 38-90 90-38zM726 640.667q88 0 150-63t62-151-62-151-150-63h-428q-88 0-150 63t-62 151 62 151 150 63h428z" />
<glyph unicode="&#xe9c9;" glyph-name="bolt" d="M470 42.667h-44l44 298h-150q-32 0-16 28 6 10 2 6 102 178 248 436h44l-44-298h150q28 0 18-28z" />
<glyph unicode="&#xe9cb;" glyph-name="emoji_food_beverage" d="M170 128.667h684v-86h-684v86zM854 596.667v128h-86v-128h86zM854 810.667q36 0 60-25t24-61v-128q0-36-24-60t-60-24h-86v-128q0-70-50-121t-120-51h-256q-70 0-121 51t-51 121v426h172v-102l-78-62q-8-6-8-16v-182q0-22 22-22h170q22 0 22 22v182q0 10-8 16l-78 62v102h470z" />
<glyph unicode="&#xe9cc;" glyph-name="lunch_dining" d="M86 256.667h852v-86q0-34-25-60t-59-26h-684q-34 0-59 26t-25 60v86zM228 362.667q-22 0-48-16-44-26-94-26v84q22 0 48 16 46 28 94 28 46 0 92-28 26-16 50-16 22 0 48 16 46 28 94 28 46 0 92-28 26-16 50-16 22 0 48 16 46 28 94 28 46 0 92-28l50-16v-84q-48 0-92 26-26 16-50 16-22 0-48-16-44-26-94-26-48 0-92 26-26 16-50 16-22 0-48-16-44-26-94-26-48 0-92 26-26 16-50 16zM938 512.667h-852q-10 104 116 180t310 76 310-76 116-180z" />
<glyph unicode="&#xe9cd;" glyph-name="park" d="M726 426.667l170-256h-300v-170h-168v170h-296l166 256h-82l296 426 298-426h-84z" />
<glyph unicode="&#xe9ce;" glyph-name="icecream" d="M292 384.667q-50 4-86 41t-36 87q0 46 31 82t77 44q8 90 75 152t159 62 159-62 75-152q46-8 77-44t31-82q0-50-35-87t-85-41l-220-428zM376 408.667l138-264 136 264q-2 2-7 6t-7 6q-58-36-124-36t-124 36q-2-2-4-5t-4-5-4-2z" />
<glyph unicode="&#xe9cf;" glyph-name="room_service" d="M590 606.667q126-26 212-123t94-227h-768q8 130 94 227t212 123q-8 16-8 34 0 36 25 60t61 24 61-24 25-60q0-18-8-34zM86 212.667h852v-84h-852v84z" />
<glyph unicode="&#xf002;" glyph-name="search" horiz-adv-x="951" d="M658.286 475.428c0 141.143-114.857 256-256 256s-256-114.857-256-256 114.857-256 256-256 256 114.857 256 256zM950.857 0c0-40-33.143-73.143-73.143-73.143-19.429 0-38.286 8-51.429 21.714l-196 195.429c-66.857-46.286-146.857-70.857-228-70.857-222.286 0-402.286 180-402.286 402.286s180 402.286 402.286 402.286 402.286-180 402.286-402.286c0-81.143-24.571-161.143-70.857-228l196-196c13.143-13.143 21.143-32 21.143-51.429z" />
<glyph unicode="&#xf003;" glyph-name="envelope-o" d="M950.857 91.428v438.857c-12-13.714-25.143-26.286-39.429-37.714-81.714-62.857-164-126.857-243.429-193.143-42.857-36-96-80-155.429-80h-1.143c-59.429 0-112.571 44-155.429 80-79.429 66.286-161.714 130.286-243.429 193.143-14.286 11.429-27.429 24-39.429 37.714v-438.857c0-9.714 8.571-18.286 18.286-18.286h841.143c9.714 0 18.286 8.571 18.286 18.286zM950.857 692c0 14.286 3.429 39.429-18.286 39.429h-841.143c-9.714 0-18.286-8.571-18.286-18.286 0-65.143 32.571-121.714 84-162.286 76.571-60 153.143-120.571 229.143-181.143 30.286-24.571 85.143-77.143 125.143-77.143h1.143c40 0 94.857 52.571 125.143 77.143 76 60.571 152.571 121.143 229.143 181.143 37.143 29.143 84 92.571 84 141.143zM1024 713.143v-621.714c0-50.286-41.143-91.429-91.429-91.429h-841.143c-50.286 0-91.429 41.143-91.429 91.429v621.714c0 50.286 41.143 91.429 91.429 91.429h841.143c50.286 0 91.429-41.143 91.429-91.429z" />
<glyph unicode="&#xf005;" glyph-name="star" horiz-adv-x="951" d="M950.857 581.143c0-10.286-7.429-20-14.857-27.429l-207.429-202.286 49.143-285.714c0.571-4 0.571-7.429 0.571-11.429 0-14.857-6.857-28.571-23.429-28.571-8 0-16 2.857-22.857 6.857l-256.571 134.857-256.571-134.857c-7.429-4-14.857-6.857-22.857-6.857-16.571 0-24 13.714-24 28.571 0 4 0.571 7.429 1.143 11.429l49.143 285.714-208 202.286c-6.857 7.429-14.286 17.143-14.286 27.429 0 17.143 17.714 24 32 26.286l286.857 41.714 128.571 260c5.143 10.857 14.857 23.429 28 23.429s22.857-12.571 28-23.429l128.571-260 286.857-41.714c13.714-2.286 32-9.143 32-26.286z" />
<glyph unicode="&#xf006;" glyph-name="star-o" horiz-adv-x="951" d="M649.714 377.143l174.857 169.714-241.143 35.429-108 218.286-108-218.286-241.143-35.429 174.857-169.714-41.714-240.571 216 113.714 215.429-113.714zM950.857 581.143c0-10.286-7.429-20-14.857-27.429l-207.429-202.286 49.143-285.714c0.571-4 0.571-7.429 0.571-11.429 0-15.429-6.857-28.571-23.429-28.571-8 0-16 2.857-22.857 6.857l-256.571 134.857-256.571-134.857c-7.429-4-14.857-6.857-22.857-6.857-16.571 0-24 13.714-24 28.571 0 4 0.571 7.429 1.143 11.429l49.143 285.714-208 202.286c-6.857 7.429-14.286 17.143-14.286 27.429 0 17.143 17.714 24 32 26.286l286.857 41.714 128.571 260c5.143 10.857 14.857 23.429 28 23.429s22.857-12.571 28-23.429l128.571-260 286.857-41.714c13.714-2.286 32-9.143 32-26.286z" />
<glyph unicode="&#xf00b;" glyph-name="th-list" d="M292.571 237.714v-109.714c0-30.286-24.571-54.857-54.857-54.857h-182.857c-30.286 0-54.857 24.571-54.857 54.857v109.714c0 30.286 24.571 54.857 54.857 54.857h182.857c30.286 0 54.857-24.571 54.857-54.857zM292.571 530.286v-109.714c0-30.286-24.571-54.857-54.857-54.857h-182.857c-30.286 0-54.857 24.571-54.857 54.857v109.714c0 30.286 24.571 54.857 54.857 54.857h182.857c30.286 0 54.857-24.571 54.857-54.857zM1024 237.714v-109.714c0-30.286-24.571-54.857-54.857-54.857h-548.571c-30.286 0-54.857 24.571-54.857 54.857v109.714c0 30.286 24.571 54.857 54.857 54.857h548.571c30.286 0 54.857-24.571 54.857-54.857zM292.571 822.857v-109.714c0-30.286-24.571-54.857-54.857-54.857h-182.857c-30.286 0-54.857 24.571-54.857 54.857v109.714c0 30.286 24.571 54.857 54.857 54.857h182.857c30.286 0 54.857-24.571 54.857-54.857zM1024 530.286v-109.714c0-30.286-24.571-54.857-54.857-54.857h-548.571c-30.286 0-54.857 24.571-54.857 54.857v109.714c0 30.286 24.571 54.857 54.857 54.857h548.571c30.286 0 54.857-24.571 54.857-54.857zM1024 822.857v-109.714c0-30.286-24.571-54.857-54.857-54.857h-548.571c-30.286 0-54.857 24.571-54.857 54.857v109.714c0 30.286 24.571 54.857 54.857 54.857h548.571c30.286 0 54.857-24.571 54.857-54.857z" />
<glyph unicode="&#xf00c;" glyph-name="check" d="M954.857 627.428c0-14.286-5.714-28.571-16-38.857l-491.429-491.429c-10.286-10.286-24.571-16-38.857-16s-28.571 5.714-38.857 16l-284.571 284.571c-10.286 10.286-16 24.571-16 38.857s5.714 28.571 16 38.857l77.714 77.714c10.286 10.286 24.571 16 38.857 16s28.571-5.714 38.857-16l168-168.571 374.857 375.429c10.286 10.286 24.571 16 38.857 16s28.571-5.714 38.857-16l77.714-77.714c10.286-10.286 16-24.571 16-38.857z" />
<glyph unicode="&#xf00d;" glyph-name="close, remove, times" horiz-adv-x="805" d="M741.714 195.428c0-14.286-5.714-28.571-16-38.857l-77.714-77.714c-10.286-10.286-24.571-16-38.857-16s-28.571 5.714-38.857 16l-168 168-168-168c-10.286-10.286-24.571-16-38.857-16s-28.571 5.714-38.857 16l-77.714 77.714c-10.286 10.286-16 24.571-16 38.857s5.714 28.571 16 38.857l168 168-168 168c-10.286 10.286-16 24.571-16 38.857s5.714 28.571 16 38.857l77.714 77.714c10.286 10.286 24.571 16 38.857 16s28.571-5.714 38.857-16l168-168 168 168c10.286 10.286 24.571 16 38.857 16s28.571-5.714 38.857-16l77.714-77.714c10.286-10.286 16-24.571 16-38.857s-5.714-28.571-16-38.857l-168-168 168-168c10.286-10.286 16-24.571 16-38.857z" />
<glyph unicode="&#xf00e;" glyph-name="search-plus" horiz-adv-x="951" d="M585.143 493.714v-36.571c0-9.714-8.571-18.286-18.286-18.286h-128v-128c0-9.714-8.571-18.286-18.286-18.286h-36.571c-9.714 0-18.286 8.571-18.286 18.286v128h-128c-9.714 0-18.286 8.571-18.286 18.286v36.571c0 9.714 8.571 18.286 18.286 18.286h128v128c0 9.714 8.571 18.286 18.286 18.286h36.571c9.714 0 18.286-8.571 18.286-18.286v-128h128c9.714 0 18.286-8.571 18.286-18.286zM658.286 475.428c0 141.143-114.857 256-256 256s-256-114.857-256-256 114.857-256 256-256 256 114.857 256 256zM950.857 0c0-40.571-32.571-73.143-73.143-73.143-19.429 0-38.286 8-51.429 21.714l-196 195.429c-66.857-46.286-146.857-70.857-228-70.857-222.286 0-402.286 180-402.286 402.286s180 402.286 402.286 402.286 402.286-180 402.286-402.286c0-81.143-24.571-161.143-70.857-228l196-196c13.143-13.143 21.143-32 21.143-51.429z" />
<glyph unicode="&#xf010;" glyph-name="search-minus" horiz-adv-x="951" d="M585.143 493.714v-36.571c0-9.714-8.571-18.286-18.286-18.286h-329.143c-9.714 0-18.286 8.571-18.286 18.286v36.571c0 9.714 8.571 18.286 18.286 18.286h329.143c9.714 0 18.286-8.571 18.286-18.286zM658.286 475.428c0 141.143-114.857 256-256 256s-256-114.857-256-256 114.857-256 256-256 256 114.857 256 256zM950.857 0c0-40.571-32.571-73.143-73.143-73.143-19.429 0-38.286 8-51.429 21.714l-196 195.429c-66.857-46.286-146.857-70.857-228-70.857-222.286 0-402.286 180-402.286 402.286s180 402.286 402.286 402.286 402.286-180 402.286-402.286c0-81.143-24.571-161.143-70.857-228l196-196c13.143-13.143 21.143-32 21.143-51.429z" />
</font>
</defs>
</svg>
